<svg xmlns="http://www.w3.org/2000/svg" xmlns:xlink="http://www.w3.org/1999/xlink" width="1024" zoomAndPan="magnify" viewBox="0 0 768 1151.999944" height="1536" preserveAspectRatio="xMidYMid meet" version="1.0"><defs><g/></defs><rect x="-76.8" width="921.6" fill="#ffffff" y="-115.199994" height="1382.399933" fill-opacity="1"/><rect x="-76.8" width="921.6" fill="#ff751f" y="-115.199994" height="1382.399933" fill-opacity="1"/><g fill="#ffffff" fill-opacity="1"><g transform="translate(166.134365, 644.366418)"><g><path d="M 2.796875 0 L 2.796875 -27.171875 L 7.671875 -27.171875 L 7.671875 -16.859375 L 8.03125 -16.78125 C 8.675781 -17.738281 9.46875 -18.472656 10.40625 -18.984375 C 11.34375 -19.503906 12.472656 -19.765625 13.796875 -19.765625 C 18.078125 -19.765625 20.21875 -17.335938 20.21875 -12.484375 L 20.21875 0 L 15.34375 0 L 15.34375 -11.859375 C 15.34375 -13.191406 15.078125 -14.15625 14.546875 -14.75 C 14.023438 -15.34375 13.207031 -15.640625 12.09375 -15.640625 C 10.738281 -15.640625 9.660156 -15.1875 8.859375 -14.28125 C 8.066406 -13.375 7.671875 -11.957031 7.671875 -10.03125 L 7.671875 0 Z M 2.796875 0 "/></g></g></g><g fill="#ffffff" fill-opacity="1"><g transform="translate(188.837908, 644.366418)"><g><path d="M 7.5625 0.375 C 6.320312 0.375 5.242188 0.144531 4.328125 -0.3125 C 3.410156 -0.769531 2.707031 -1.441406 2.21875 -2.328125 C 1.726562 -3.210938 1.484375 -4.273438 1.484375 -5.515625 C 1.484375 -6.671875 1.726562 -7.632812 2.21875 -8.40625 C 2.707031 -9.1875 3.46875 -9.828125 4.5 -10.328125 C 5.53125 -10.828125 6.878906 -11.210938 8.546875 -11.484375 C 9.703125 -11.671875 10.582031 -11.875 11.1875 -12.09375 C 11.789062 -12.3125 12.195312 -12.5625 12.40625 -12.84375 C 12.625 -13.125 12.734375 -13.484375 12.734375 -13.921875 C 12.734375 -14.546875 12.515625 -15.019531 12.078125 -15.34375 C 11.640625 -15.675781 10.921875 -15.84375 9.921875 -15.84375 C 8.835938 -15.84375 7.804688 -15.597656 6.828125 -15.109375 C 5.859375 -14.628906 5.019531 -14 4.3125 -13.21875 L 3.953125 -13.21875 L 1.921875 -16.296875 C 2.898438 -17.390625 4.097656 -18.238281 5.515625 -18.84375 C 6.929688 -19.457031 8.476562 -19.765625 10.15625 -19.765625 C 12.726562 -19.765625 14.585938 -19.21875 15.734375 -18.125 C 16.878906 -17.03125 17.453125 -15.484375 17.453125 -13.484375 L 17.453125 -5.0625 C 17.453125 -4.195312 17.832031 -3.765625 18.59375 -3.765625 C 18.882812 -3.765625 19.171875 -3.816406 19.453125 -3.921875 L 19.703125 -3.84375 L 20.0625 -0.453125 C 19.789062 -0.273438 19.414062 -0.128906 18.9375 -0.015625 C 18.457031 0.0859375 17.925781 0.140625 17.34375 0.140625 C 16.1875 0.140625 15.28125 -0.0820312 14.625 -0.53125 C 13.976562 -0.976562 13.515625 -1.675781 13.234375 -2.625 L 12.875 -2.65625 C 11.914062 -0.632812 10.144531 0.375 7.5625 0.375 Z M 9.109375 -3.265625 C 10.234375 -3.265625 11.128906 -3.640625 11.796875 -4.390625 C 12.472656 -5.148438 12.8125 -6.207031 12.8125 -7.5625 L 12.8125 -9.53125 L 12.484375 -9.59375 C 12.191406 -9.363281 11.804688 -9.164062 11.328125 -9 C 10.859375 -8.84375 10.175781 -8.691406 9.28125 -8.546875 C 8.226562 -8.367188 7.46875 -8.066406 7 -7.640625 C 6.539062 -7.210938 6.3125 -6.601562 6.3125 -5.8125 C 6.3125 -4.988281 6.554688 -4.359375 7.046875 -3.921875 C 7.535156 -3.484375 8.222656 -3.265625 9.109375 -3.265625 Z M 9.109375 -3.265625 "/></g></g></g><g fill="#ffffff" fill-opacity="1"><g transform="translate(209.274616, 644.366418)"><g><path d="M 11.296875 0.375 C 9.421875 0.375 7.765625 -0.015625 6.328125 -0.796875 C 4.890625 -1.578125 3.765625 -2.722656 2.953125 -4.234375 C 2.140625 -5.742188 1.734375 -7.5625 1.734375 -9.6875 C 1.734375 -11.820312 2.140625 -13.644531 2.953125 -15.15625 C 3.765625 -16.664062 4.882812 -17.8125 6.3125 -18.59375 C 7.738281 -19.375 9.375 -19.765625 11.21875 -19.765625 C 15.300781 -19.765625 17.921875 -18.28125 19.078125 -15.3125 L 15.734375 -12.921875 L 15.359375 -12.921875 C 14.960938 -13.835938 14.441406 -14.515625 13.796875 -14.953125 C 13.160156 -15.398438 12.300781 -15.625 11.21875 -15.625 C 9.8125 -15.625 8.710938 -15.132812 7.921875 -14.15625 C 7.140625 -13.1875 6.75 -11.695312 6.75 -9.6875 C 6.75 -7.695312 7.144531 -6.210938 7.9375 -5.234375 C 8.738281 -4.253906 9.859375 -3.765625 11.296875 -3.765625 C 12.359375 -3.765625 13.253906 -4.046875 13.984375 -4.609375 C 14.710938 -5.179688 15.238281 -6 15.5625 -7.0625 L 15.921875 -7.109375 L 19.390625 -5.203125 C 18.898438 -3.566406 17.988281 -2.226562 16.65625 -1.1875 C 15.320312 -0.144531 13.535156 0.375 11.296875 0.375 Z M 11.296875 0.375 "/></g></g></g><g fill="#ffffff" fill-opacity="1"><g transform="translate(229.254443, 644.366418)"><g><path d="M 2.796875 0 L 2.796875 -27.171875 L 7.671875 -27.171875 L 7.671875 -12.09375 L 8.140625 -12.09375 L 13.75 -19.390625 L 18.6875 -19.390625 L 18.6875 -18.984375 L 12.09375 -10.484375 L 19.421875 -0.4375 L 19.421875 0 L 14.296875 0 L 8.140625 -8.171875 L 7.671875 -8.171875 L 7.671875 0 Z M 2.796875 0 "/></g></g></g><g fill="#ffffff" fill-opacity="1"><g transform="translate(248.408326, 644.366418)"><g><path d="M 19.15625 -8.59375 L 6.703125 -8.59375 C 6.835938 -6.90625 7.316406 -5.675781 8.140625 -4.90625 C 8.960938 -4.144531 10.082031 -3.765625 11.5 -3.765625 C 12.613281 -3.765625 13.515625 -3.972656 14.203125 -4.390625 C 14.890625 -4.804688 15.445312 -5.4375 15.875 -6.28125 L 16.25 -6.28125 L 19.484375 -4.203125 C 18.847656 -2.835938 17.890625 -1.734375 16.609375 -0.890625 C 15.335938 -0.046875 13.632812 0.375 11.5 0.375 C 9.488281 0.375 7.753906 -0.00390625 6.296875 -0.765625 C 4.835938 -1.535156 3.710938 -2.671875 2.921875 -4.171875 C 2.128906 -5.679688 1.734375 -7.519531 1.734375 -9.6875 C 1.734375 -11.882812 2.148438 -13.738281 2.984375 -15.25 C 3.816406 -16.769531 4.941406 -17.898438 6.359375 -18.640625 C 7.773438 -19.390625 9.367188 -19.765625 11.140625 -19.765625 C 13.890625 -19.765625 15.992188 -19.035156 17.453125 -17.578125 C 18.910156 -16.128906 19.640625 -14 19.640625 -11.1875 C 19.640625 -10.164062 19.601562 -9.375 19.53125 -8.8125 Z M 14.984375 -11.75 C 14.929688 -13.21875 14.582031 -14.289062 13.9375 -14.96875 C 13.300781 -15.644531 12.367188 -15.984375 11.140625 -15.984375 C 8.679688 -15.984375 7.234375 -14.570312 6.796875 -11.75 Z M 14.984375 -11.75 "/></g></g></g><g fill="#ffffff" fill-opacity="1"><g transform="translate(269.47764, 644.366418)"><g><path d="M 9.578125 0.375 C 8.046875 0.375 6.691406 0.00390625 5.515625 -0.734375 C 4.335938 -1.484375 3.410156 -2.609375 2.734375 -4.109375 C 2.066406 -5.617188 1.734375 -7.476562 1.734375 -9.6875 C 1.734375 -11.90625 2.078125 -13.765625 2.765625 -15.265625 C 3.453125 -16.773438 4.398438 -17.898438 5.609375 -18.640625 C 6.828125 -19.390625 8.234375 -19.765625 9.828125 -19.765625 C 11.035156 -19.765625 12.082031 -19.554688 12.96875 -19.140625 C 13.851562 -18.722656 14.597656 -18.070312 15.203125 -17.1875 L 15.578125 -17.28125 L 15.578125 -27.171875 L 20.4375 -27.171875 L 20.4375 0 L 15.578125 0 L 15.578125 -2.515625 L 15.203125 -2.578125 C 14.660156 -1.671875 13.921875 -0.953125 12.984375 -0.421875 C 12.046875 0.109375 10.910156 0.375 9.578125 0.375 Z M 11.15625 -3.765625 C 12.53125 -3.765625 13.613281 -4.253906 14.40625 -5.234375 C 15.207031 -6.210938 15.609375 -7.695312 15.609375 -9.6875 C 15.609375 -11.675781 15.207031 -13.160156 14.40625 -14.140625 C 13.613281 -15.128906 12.53125 -15.625 11.15625 -15.625 C 9.726562 -15.625 8.632812 -15.144531 7.875 -14.1875 C 7.125 -13.238281 6.75 -11.738281 6.75 -9.6875 C 6.75 -7.644531 7.125 -6.144531 7.875 -5.1875 C 8.632812 -4.238281 9.726562 -3.765625 11.15625 -3.765625 Z M 11.15625 -3.765625 "/></g></g></g><g fill="#ffffff" fill-opacity="1"><g transform="translate(292.708355, 644.366418)"><g/></g></g><g fill="#ffffff" fill-opacity="1"><g transform="translate(301.195831, 644.366418)"><g><path d="M 13.546875 0.375 C 11.078125 0.375 9.238281 -0.550781 8.03125 -2.40625 L 7.671875 -2.34375 L 7.671875 0 L 2.796875 0 L 2.796875 -27.171875 L 7.671875 -27.171875 L 7.671875 -17.109375 L 8.03125 -17.03125 C 8.695312 -17.957031 9.484375 -18.644531 10.390625 -19.09375 C 11.304688 -19.539062 12.394531 -19.765625 13.65625 -19.765625 C 15.226562 -19.765625 16.597656 -19.394531 17.765625 -18.65625 C 18.941406 -17.914062 19.859375 -16.789062 20.515625 -15.28125 C 21.171875 -13.78125 21.5 -11.914062 21.5 -9.6875 C 21.5 -7.476562 21.15625 -5.617188 20.46875 -4.109375 C 19.789062 -2.609375 18.851562 -1.484375 17.65625 -0.734375 C 16.46875 0.00390625 15.097656 0.375 13.546875 0.375 Z M 12.078125 -3.765625 C 13.503906 -3.765625 14.59375 -4.238281 15.34375 -5.1875 C 16.09375 -6.144531 16.46875 -7.644531 16.46875 -9.6875 C 16.46875 -11.738281 16.09375 -13.238281 15.34375 -14.1875 C 14.59375 -15.144531 13.503906 -15.625 12.078125 -15.625 C 10.703125 -15.625 9.613281 -15.128906 8.8125 -14.140625 C 8.007812 -13.160156 7.609375 -11.675781 7.609375 -9.6875 C 7.609375 -7.695312 8.007812 -6.210938 8.8125 -5.234375 C 9.613281 -4.253906 10.703125 -3.765625 12.078125 -3.765625 Z M 12.078125 -3.765625 "/></g></g></g><g fill="#ffffff" fill-opacity="1"><g transform="translate(324.039918, 644.366418)"><g><path d="M 4.296875 8.234375 C 3.460938 8.234375 2.707031 8.164062 2.03125 8.03125 C 1.351562 7.90625 0.804688 7.738281 0.390625 7.53125 L 1.15625 3.59375 L 1.484375 3.484375 C 1.773438 3.628906 2.132812 3.75 2.5625 3.84375 C 3 3.9375 3.445312 3.984375 3.90625 3.984375 C 4.6875 3.984375 5.335938 3.878906 5.859375 3.671875 C 6.378906 3.472656 6.820312 3.132812 7.1875 2.65625 C 7.550781 2.1875 7.875 1.53125 8.15625 0.6875 L 0.421875 -19.390625 L 5.515625 -19.390625 L 10.34375 -5.90625 L 10.765625 -5.90625 L 15.453125 -19.390625 L 20.40625 -19.390625 L 12.625 1.21875 C 12 2.875 11.3125 4.207031 10.5625 5.21875 C 9.820312 6.238281 8.945312 6.992188 7.9375 7.484375 C 6.925781 7.984375 5.710938 8.234375 4.296875 8.234375 Z M 4.296875 8.234375 "/></g></g></g><g fill="#ffffff" fill-opacity="1"><g transform="translate(344.845641, 644.366418)"><g/></g></g><g fill="#ffffff" fill-opacity="1"><g transform="translate(353.333117, 644.366418)"><g><path d="M 16.28125 0 L 1.015625 0 L 1.015625 -4.03125 L 10.40625 -15.171875 L 10.296875 -15.546875 L 1.453125 -15.546875 L 1.453125 -19.40625 L 16.140625 -19.40625 L 16.140625 -15.375 L 6.75 -4.234375 L 6.875 -3.875 L 16.28125 -3.875 Z M 16.28125 0 "/></g></g></g><g fill="#ffffff" fill-opacity="1"><g transform="translate(370.62436, 644.366418)"><g><path d="M 7.5625 0.375 C 6.320312 0.375 5.242188 0.144531 4.328125 -0.3125 C 3.410156 -0.769531 2.707031 -1.441406 2.21875 -2.328125 C 1.726562 -3.210938 1.484375 -4.273438 1.484375 -5.515625 C 1.484375 -6.671875 1.726562 -7.632812 2.21875 -8.40625 C 2.707031 -9.1875 3.46875 -9.828125 4.5 -10.328125 C 5.53125 -10.828125 6.878906 -11.210938 8.546875 -11.484375 C 9.703125 -11.671875 10.582031 -11.875 11.1875 -12.09375 C 11.789062 -12.3125 12.195312 -12.5625 12.40625 -12.84375 C 12.625 -13.125 12.734375 -13.484375 12.734375 -13.921875 C 12.734375 -14.546875 12.515625 -15.019531 12.078125 -15.34375 C 11.640625 -15.675781 10.921875 -15.84375 9.921875 -15.84375 C 8.835938 -15.84375 7.804688 -15.597656 6.828125 -15.109375 C 5.859375 -14.628906 5.019531 -14 4.3125 -13.21875 L 3.953125 -13.21875 L 1.921875 -16.296875 C 2.898438 -17.390625 4.097656 -18.238281 5.515625 -18.84375 C 6.929688 -19.457031 8.476562 -19.765625 10.15625 -19.765625 C 12.726562 -19.765625 14.585938 -19.21875 15.734375 -18.125 C 16.878906 -17.03125 17.453125 -15.484375 17.453125 -13.484375 L 17.453125 -5.0625 C 17.453125 -4.195312 17.832031 -3.765625 18.59375 -3.765625 C 18.882812 -3.765625 19.171875 -3.816406 19.453125 -3.921875 L 19.703125 -3.84375 L 20.0625 -0.453125 C 19.789062 -0.273438 19.414062 -0.128906 18.9375 -0.015625 C 18.457031 0.0859375 17.925781 0.140625 17.34375 0.140625 C 16.1875 0.140625 15.28125 -0.0820312 14.625 -0.53125 C 13.976562 -0.976562 13.515625 -1.675781 13.234375 -2.625 L 12.875 -2.65625 C 11.914062 -0.632812 10.144531 0.375 7.5625 0.375 Z M 9.109375 -3.265625 C 10.234375 -3.265625 11.128906 -3.640625 11.796875 -4.390625 C 12.472656 -5.148438 12.8125 -6.207031 12.8125 -7.5625 L 12.8125 -9.53125 L 12.484375 -9.59375 C 12.191406 -9.363281 11.804688 -9.164062 11.328125 -9 C 10.859375 -8.84375 10.175781 -8.691406 9.28125 -8.546875 C 8.226562 -8.367188 7.46875 -8.066406 7 -7.640625 C 6.539062 -7.210938 6.3125 -6.601562 6.3125 -5.8125 C 6.3125 -4.988281 6.554688 -4.359375 7.046875 -3.921875 C 7.535156 -3.484375 8.222656 -3.265625 9.109375 -3.265625 Z M 9.109375 -3.265625 "/></g></g></g><g fill="#ffffff" fill-opacity="1"><g transform="translate(391.061057, 644.366418)"><g><path d="M 2.796875 0 L 2.796875 -19.390625 L 7.46875 -19.390625 L 7.46875 -16.546875 L 7.84375 -16.453125 C 9.050781 -18.660156 11.007812 -19.765625 13.71875 -19.765625 C 15.945312 -19.765625 17.585938 -19.15625 18.640625 -17.9375 C 19.691406 -16.71875 20.21875 -14.941406 20.21875 -12.609375 L 20.21875 0 L 15.34375 0 L 15.34375 -12 C 15.34375 -13.289062 15.082031 -14.21875 14.5625 -14.78125 C 14.050781 -15.351562 13.226562 -15.640625 12.09375 -15.640625 C 10.695312 -15.640625 9.609375 -15.1875 8.828125 -14.28125 C 8.054688 -13.382812 7.671875 -11.96875 7.671875 -10.03125 L 7.671875 0 Z M 2.796875 0 "/></g></g></g><g fill="#ffffff" fill-opacity="1"><g transform="translate(413.764622, 644.366418)"><g><path d="M 11.265625 0.375 C 9.367188 0.375 7.703125 -0.015625 6.265625 -0.796875 C 4.828125 -1.578125 3.710938 -2.71875 2.921875 -4.21875 C 2.128906 -5.726562 1.734375 -7.550781 1.734375 -9.6875 C 1.734375 -11.820312 2.128906 -13.644531 2.921875 -15.15625 C 3.710938 -16.664062 4.828125 -17.8125 6.265625 -18.59375 C 7.703125 -19.375 9.367188 -19.765625 11.265625 -19.765625 C 13.160156 -19.765625 14.828125 -19.375 16.265625 -18.59375 C 17.703125 -17.8125 18.816406 -16.664062 19.609375 -15.15625 C 20.410156 -13.644531 20.8125 -11.820312 20.8125 -9.6875 C 20.8125 -7.550781 20.410156 -5.726562 19.609375 -4.21875 C 18.816406 -2.71875 17.703125 -1.578125 16.265625 -0.796875 C 14.828125 -0.015625 13.160156 0.375 11.265625 0.375 Z M 11.265625 -3.765625 C 14.273438 -3.765625 15.78125 -5.738281 15.78125 -9.6875 C 15.78125 -11.738281 15.394531 -13.238281 14.625 -14.1875 C 13.851562 -15.144531 12.734375 -15.625 11.265625 -15.625 C 8.253906 -15.625 6.75 -13.644531 6.75 -9.6875 C 6.75 -5.738281 8.253906 -3.765625 11.265625 -3.765625 Z M 11.265625 -3.765625 "/></g></g></g><g fill="#ffffff" fill-opacity="1"><g transform="translate(436.29243, 644.366418)"><g><path d="M 9.078125 0.375 C 7.742188 0.375 6.523438 0.21875 5.421875 -0.09375 C 4.328125 -0.40625 3.390625 -0.832031 2.609375 -1.375 C 1.828125 -1.925781 1.25 -2.550781 0.875 -3.25 L 3.59375 -6.171875 L 3.953125 -6.171875 C 4.597656 -5.304688 5.359375 -4.65625 6.234375 -4.21875 C 7.117188 -3.78125 8.078125 -3.5625 9.109375 -3.5625 C 10.054688 -3.5625 10.769531 -3.734375 11.25 -4.078125 C 11.726562 -4.421875 11.96875 -4.90625 11.96875 -5.53125 C 11.96875 -6.03125 11.796875 -6.445312 11.453125 -6.78125 C 11.109375 -7.113281 10.550781 -7.375 9.78125 -7.5625 L 7.203125 -8.171875 C 5.285156 -8.628906 3.882812 -9.328125 3 -10.265625 C 2.113281 -11.210938 1.671875 -12.414062 1.671875 -13.875 C 1.671875 -15.082031 1.976562 -16.128906 2.59375 -17.015625 C 3.207031 -17.910156 4.070312 -18.59375 5.1875 -19.0625 C 6.3125 -19.53125 7.617188 -19.765625 9.109375 -19.765625 C 10.847656 -19.765625 12.289062 -19.507812 13.4375 -19 C 14.59375 -18.5 15.492188 -17.828125 16.140625 -16.984375 L 13.53125 -14.171875 L 13.1875 -14.171875 C 12.644531 -14.773438 12.035156 -15.21875 11.359375 -15.5 C 10.691406 -15.78125 9.941406 -15.921875 9.109375 -15.921875 C 7.179688 -15.921875 6.21875 -15.328125 6.21875 -14.140625 C 6.21875 -13.628906 6.394531 -13.210938 6.75 -12.890625 C 7.113281 -12.578125 7.75 -12.320312 8.65625 -12.125 L 11.046875 -11.609375 C 13.015625 -11.179688 14.453125 -10.5 15.359375 -9.5625 C 16.265625 -8.632812 16.71875 -7.382812 16.71875 -5.8125 C 16.71875 -4.582031 16.410156 -3.5 15.796875 -2.5625 C 15.191406 -1.625 14.3125 -0.898438 13.15625 -0.390625 C 12.007812 0.117188 10.648438 0.375 9.078125 0.375 Z M 9.078125 0.375 "/></g></g></g><g fill="#ffffff" fill-opacity="1"><g transform="translate(454.163568, 644.366418)"><g><path d="M 19.15625 -8.59375 L 6.703125 -8.59375 C 6.835938 -6.90625 7.316406 -5.675781 8.140625 -4.90625 C 8.960938 -4.144531 10.082031 -3.765625 11.5 -3.765625 C 12.613281 -3.765625 13.515625 -3.972656 14.203125 -4.390625 C 14.890625 -4.804688 15.445312 -5.4375 15.875 -6.28125 L 16.25 -6.28125 L 19.484375 -4.203125 C 18.847656 -2.835938 17.890625 -1.734375 16.609375 -0.890625 C 15.335938 -0.046875 13.632812 0.375 11.5 0.375 C 9.488281 0.375 7.753906 -0.00390625 6.296875 -0.765625 C 4.835938 -1.535156 3.710938 -2.671875 2.921875 -4.171875 C 2.128906 -5.679688 1.734375 -7.519531 1.734375 -9.6875 C 1.734375 -11.882812 2.148438 -13.738281 2.984375 -15.25 C 3.816406 -16.769531 4.941406 -17.898438 6.359375 -18.640625 C 7.773438 -19.390625 9.367188 -19.765625 11.140625 -19.765625 C 13.890625 -19.765625 15.992188 -19.035156 17.453125 -17.578125 C 18.910156 -16.128906 19.640625 -14 19.640625 -11.1875 C 19.640625 -10.164062 19.601562 -9.375 19.53125 -8.8125 Z M 14.984375 -11.75 C 14.929688 -13.21875 14.582031 -14.289062 13.9375 -14.96875 C 13.300781 -15.644531 12.367188 -15.984375 11.140625 -15.984375 C 8.679688 -15.984375 7.234375 -14.570312 6.796875 -11.75 Z M 14.984375 -11.75 "/></g></g></g><g fill="#ffffff" fill-opacity="1"><g transform="translate(475.232894, 644.366418)"><g><path d="M 11.296875 0.375 C 9.421875 0.375 7.765625 -0.015625 6.328125 -0.796875 C 4.890625 -1.578125 3.765625 -2.722656 2.953125 -4.234375 C 2.140625 -5.742188 1.734375 -7.5625 1.734375 -9.6875 C 1.734375 -11.820312 2.140625 -13.644531 2.953125 -15.15625 C 3.765625 -16.664062 4.882812 -17.8125 6.3125 -18.59375 C 7.738281 -19.375 9.375 -19.765625 11.21875 -19.765625 C 15.300781 -19.765625 17.921875 -18.28125 19.078125 -15.3125 L 15.734375 -12.921875 L 15.359375 -12.921875 C 14.960938 -13.835938 14.441406 -14.515625 13.796875 -14.953125 C 13.160156 -15.398438 12.300781 -15.625 11.21875 -15.625 C 9.8125 -15.625 8.710938 -15.132812 7.921875 -14.15625 C 7.140625 -13.1875 6.75 -11.695312 6.75 -9.6875 C 6.75 -7.695312 7.144531 -6.210938 7.9375 -5.234375 C 8.738281 -4.253906 9.859375 -3.765625 11.296875 -3.765625 C 12.359375 -3.765625 13.253906 -4.046875 13.984375 -4.609375 C 14.710938 -5.179688 15.238281 -6 15.5625 -7.0625 L 15.921875 -7.109375 L 19.390625 -5.203125 C 18.898438 -3.566406 17.988281 -2.226562 16.65625 -1.1875 C 15.320312 -0.144531 13.535156 0.375 11.296875 0.375 Z M 11.296875 0.375 "/></g></g></g><g fill="#ffffff" fill-opacity="1"><g transform="translate(495.212721, 644.366418)"><g><path d="M 8.875 0.375 C 6.695312 0.375 5.085938 -0.21875 4.046875 -1.40625 C 3.015625 -2.601562 2.5 -4.316406 2.5 -6.546875 L 2.5 -19.390625 L 7.359375 -19.390625 L 7.359375 -7.15625 C 7.359375 -5.96875 7.613281 -5.101562 8.125 -4.5625 C 8.632812 -4.019531 9.425781 -3.75 10.5 -3.75 C 11.84375 -3.75 12.890625 -4.191406 13.640625 -5.078125 C 14.390625 -5.960938 14.765625 -7.351562 14.765625 -9.25 L 14.765625 -19.390625 L 19.640625 -19.390625 L 19.640625 0 L 14.953125 0 L 14.953125 -2.84375 L 14.59375 -2.9375 C 13.96875 -1.820312 13.207031 -0.988281 12.3125 -0.4375 C 11.414062 0.101562 10.269531 0.375 8.875 0.375 Z M 8.875 0.375 "/></g></g></g><g fill="#ffffff" fill-opacity="1"><g transform="translate(517.635082, 644.366418)"><g><path d="M 2.796875 0 L 2.796875 -19.390625 L 7.53125 -19.390625 L 7.53125 -16.5 L 7.890625 -16.4375 C 8.359375 -17.507812 8.972656 -18.296875 9.734375 -18.796875 C 10.492188 -19.304688 11.421875 -19.5625 12.515625 -19.5625 C 13.617188 -19.5625 14.457031 -19.375 15.03125 -19 L 14.203125 -14.796875 L 13.828125 -14.734375 C 13.515625 -14.859375 13.210938 -14.945312 12.921875 -15 C 12.628906 -15.0625 12.269531 -15.09375 11.84375 -15.09375 C 10.488281 -15.09375 9.453125 -14.613281 8.734375 -13.65625 C 8.023438 -12.707031 7.671875 -11.179688 7.671875 -9.078125 L 7.671875 0 Z M 2.796875 0 "/></g></g></g><g fill="#ffffff" fill-opacity="1"><g transform="translate(532.835215, 644.366418)"><g><path d="M 5.21875 -21.703125 C 4.34375 -21.703125 3.628906 -21.96875 3.078125 -22.5 C 2.523438 -23.039062 2.25 -23.734375 2.25 -24.578125 C 2.25 -25.410156 2.523438 -26.09375 3.078125 -26.625 C 3.628906 -27.15625 4.34375 -27.421875 5.21875 -27.421875 C 5.800781 -27.421875 6.320312 -27.296875 6.78125 -27.046875 C 7.238281 -26.804688 7.59375 -26.472656 7.84375 -26.046875 C 8.101562 -25.617188 8.234375 -25.128906 8.234375 -24.578125 C 8.234375 -24.023438 8.101562 -23.53125 7.84375 -23.09375 C 7.59375 -22.664062 7.238281 -22.328125 6.78125 -22.078125 C 6.320312 -21.828125 5.800781 -21.703125 5.21875 -21.703125 Z M 2.796875 0 L 2.796875 -19.390625 L 7.671875 -19.390625 L 7.671875 0 Z M 2.796875 0 "/></g></g></g><g fill="#ffffff" fill-opacity="1"><g transform="translate(543.273233, 644.366418)"><g><path d="M 13.375 -4.625 L 14.640625 -1.015625 C 14.117188 -0.585938 13.457031 -0.25 12.65625 0 C 11.863281 0.25 10.960938 0.375 9.953125 0.375 C 7.847656 0.375 6.25 -0.195312 5.15625 -1.34375 C 4.070312 -2.488281 3.53125 -4.148438 3.53125 -6.328125 L 3.53125 -15.546875 L 0.578125 -15.546875 L 0.578125 -19.40625 L 3.53125 -19.40625 L 3.53125 -23.1875 L 8.40625 -23.984375 L 8.40625 -19.40625 L 13.90625 -19.40625 L 13.90625 -15.546875 L 8.40625 -15.546875 L 8.40625 -6.6875 C 8.40625 -5.71875 8.601562 -5.015625 9 -4.578125 C 9.394531 -4.140625 9.972656 -3.921875 10.734375 -3.921875 C 11.609375 -3.921875 12.367188 -4.15625 13.015625 -4.625 Z M 13.375 -4.625 "/></g></g></g><g fill="#ffffff" fill-opacity="1"><g transform="translate(558.332786, 644.366418)"><g><path d="M 4.296875 8.234375 C 3.460938 8.234375 2.707031 8.164062 2.03125 8.03125 C 1.351562 7.90625 0.804688 7.738281 0.390625 7.53125 L 1.15625 3.59375 L 1.484375 3.484375 C 1.773438 3.628906 2.132812 3.75 2.5625 3.84375 C 3 3.9375 3.445312 3.984375 3.90625 3.984375 C 4.6875 3.984375 5.335938 3.878906 5.859375 3.671875 C 6.378906 3.472656 6.820312 3.132812 7.1875 2.65625 C 7.550781 2.1875 7.875 1.53125 8.15625 0.6875 L 0.421875 -19.390625 L 5.515625 -19.390625 L 10.34375 -5.90625 L 10.765625 -5.90625 L 15.453125 -19.390625 L 20.40625 -19.390625 L 12.625 1.21875 C 12 2.875 11.3125 4.207031 10.5625 5.21875 C 9.820312 6.238281 8.945312 6.992188 7.9375 7.484375 C 6.925781 7.984375 5.710938 8.234375 4.296875 8.234375 Z M 4.296875 8.234375 "/></g></g></g><g fill="#ffffff" fill-opacity="1"><g transform="translate(579.13851, 644.366418)"><g><path d="M 4.953125 0.15625 C 4.335938 0.15625 3.789062 0.03125 3.3125 -0.21875 C 2.84375 -0.46875 2.476562 -0.816406 2.21875 -1.265625 C 1.96875 -1.710938 1.84375 -2.21875 1.84375 -2.78125 C 1.84375 -3.34375 1.96875 -3.84375 2.21875 -4.28125 C 2.476562 -4.726562 2.84375 -5.082031 3.3125 -5.34375 C 3.789062 -5.601562 4.335938 -5.734375 4.953125 -5.734375 C 5.585938 -5.734375 6.140625 -5.601562 6.609375 -5.34375 C 7.085938 -5.09375 7.453125 -4.742188 7.703125 -4.296875 C 7.960938 -3.859375 8.09375 -3.359375 8.09375 -2.796875 C 8.09375 -1.941406 7.804688 -1.234375 7.234375 -0.671875 C 6.660156 -0.117188 5.898438 0.15625 4.953125 0.15625 Z M 4.953125 -13.703125 C 4.335938 -13.703125 3.789062 -13.828125 3.3125 -14.078125 C 2.84375 -14.328125 2.476562 -14.675781 2.21875 -15.125 C 1.96875 -15.570312 1.84375 -16.078125 1.84375 -16.640625 C 1.84375 -17.203125 1.96875 -17.703125 2.21875 -18.140625 C 2.476562 -18.585938 2.84375 -18.941406 3.3125 -19.203125 C 3.789062 -19.460938 4.335938 -19.59375 4.953125 -19.59375 C 5.585938 -19.59375 6.140625 -19.460938 6.609375 -19.203125 C 7.085938 -18.953125 7.453125 -18.601562 7.703125 -18.15625 C 7.960938 -17.71875 8.09375 -17.21875 8.09375 -16.65625 C 8.09375 -15.800781 7.804688 -15.09375 7.234375 -14.53125 C 6.660156 -13.976562 5.898438 -13.703125 4.953125 -13.703125 Z M 4.953125 -13.703125 "/></g></g></g><g fill="#ffffff" fill-opacity="1"><g transform="translate(589.066945, 644.366418)"><g><path d="M 1.109375 3.3125 C 1.921875 1.90625 2.613281 0.492188 3.1875 -0.921875 C 3.757812 -2.347656 4.21875 -3.957031 4.5625 -5.75 C 4.90625 -7.539062 5.078125 -9.539062 5.078125 -11.75 C 5.078125 -13.945312 4.90625 -15.941406 4.5625 -17.734375 C 4.21875 -19.535156 3.757812 -21.144531 3.1875 -22.5625 C 2.625 -23.988281 1.929688 -25.40625 1.109375 -26.8125 L 1.171875 -27.171875 L 4.90625 -27.171875 C 5.914062 -25.921875 6.804688 -24.59375 7.578125 -23.1875 C 8.347656 -21.789062 8.984375 -20.132812 9.484375 -18.21875 C 9.984375 -16.300781 10.234375 -14.144531 10.234375 -11.75 C 10.234375 -8.289062 9.742188 -5.347656 8.765625 -2.921875 C 7.785156 -0.492188 6.5 1.703125 4.90625 3.671875 L 1.171875 3.671875 Z M 1.109375 3.3125 "/></g></g></g><g fill="#ffffff" fill-opacity="1"><g transform="translate(180.428673, 317.944845)"><g/></g></g><g fill="#ffffff" fill-opacity="1"><g transform="translate(185.866173, 317.944845)"><g><path d="M 12.34375 -15.8125 L 12.34375 -14.234375 L 7.390625 -14.234375 L 7.390625 0 L 5.546875 0 L 5.546875 -14.234375 L 0.578125 -14.234375 L 0.578125 -15.8125 Z M 12.34375 -15.8125 "/></g></g></g><g fill="#ffffff" fill-opacity="1"><g transform="translate(198.778883, 317.944845)"><g><path d="M 2.078125 0 L 2.078125 -16.71875 L 3.84375 -16.71875 L 3.84375 -10.234375 L 4.0625 -10.1875 C 4.914062 -11.5 6.144531 -12.15625 7.75 -12.15625 C 9.1875 -12.15625 10.226562 -11.789062 10.875 -11.0625 C 11.519531 -10.332031 11.84375 -9.207031 11.84375 -7.6875 L 11.84375 0 L 10.078125 0 L 10.078125 -7.640625 C 10.078125 -8.359375 9.984375 -8.9375 9.796875 -9.375 C 9.617188 -9.8125 9.335938 -10.128906 8.953125 -10.328125 C 8.566406 -10.523438 8.0625 -10.625 7.4375 -10.625 C 6.351562 -10.625 5.484375 -10.273438 4.828125 -9.578125 C 4.171875 -8.878906 3.84375 -7.726562 3.84375 -6.125 L 3.84375 0 Z M 2.078125 0 "/></g></g></g><g fill="#ffffff" fill-opacity="1"><g transform="translate(212.513509, 317.944845)"><g><path d="M 2.96875 -14.234375 C 2.59375 -14.234375 2.285156 -14.347656 2.046875 -14.578125 C 1.816406 -14.816406 1.703125 -15.117188 1.703125 -15.484375 C 1.703125 -15.835938 1.816406 -16.128906 2.046875 -16.359375 C 2.285156 -16.597656 2.59375 -16.71875 2.96875 -16.71875 C 3.34375 -16.71875 3.644531 -16.597656 3.875 -16.359375 C 4.113281 -16.128906 4.234375 -15.835938 4.234375 -15.484375 C 4.234375 -15.117188 4.113281 -14.816406 3.875 -14.578125 C 3.644531 -14.347656 3.34375 -14.234375 2.96875 -14.234375 Z M 2.078125 0 L 2.078125 -11.9375 L 3.84375 -11.9375 L 3.84375 0 Z M 2.078125 0 "/></g></g></g><g fill="#ffffff" fill-opacity="1"><g transform="translate(218.432576, 317.944845)"><g><path d="M 5.4375 0.234375 C 4.6875 0.234375 3.992188 0.132812 3.359375 -0.0625 C 2.722656 -0.269531 2.179688 -0.546875 1.734375 -0.890625 C 1.296875 -1.234375 0.988281 -1.625 0.8125 -2.0625 L 1.84375 -3.140625 L 2.078125 -3.140625 C 2.460938 -2.546875 2.929688 -2.097656 3.484375 -1.796875 C 4.035156 -1.503906 4.6875 -1.359375 5.4375 -1.359375 C 6.320312 -1.359375 6.992188 -1.523438 7.453125 -1.859375 C 7.910156 -2.203125 8.140625 -2.679688 8.140625 -3.296875 C 8.140625 -3.765625 8 -4.148438 7.71875 -4.453125 C 7.4375 -4.765625 6.988281 -5 6.375 -5.15625 L 4.359375 -5.640625 C 3.285156 -5.898438 2.5 -6.3125 2 -6.875 C 1.507812 -7.4375 1.265625 -8.132812 1.265625 -8.96875 C 1.265625 -9.613281 1.429688 -10.175781 1.765625 -10.65625 C 2.097656 -11.132812 2.570312 -11.503906 3.1875 -11.765625 C 3.8125 -12.023438 4.554688 -12.15625 5.421875 -12.15625 C 6.515625 -12.15625 7.375 -12 8 -11.6875 C 8.632812 -11.382812 9.128906 -10.960938 9.484375 -10.421875 L 8.5 -9.4375 L 8.28125 -9.4375 C 7.894531 -9.882812 7.472656 -10.203125 7.015625 -10.390625 C 6.566406 -10.585938 6.035156 -10.6875 5.421875 -10.6875 C 4.628906 -10.6875 4.023438 -10.546875 3.609375 -10.265625 C 3.191406 -9.984375 2.984375 -9.578125 2.984375 -9.046875 C 2.984375 -8.554688 3.128906 -8.164062 3.421875 -7.875 C 3.722656 -7.582031 4.238281 -7.34375 4.96875 -7.15625 L 6.953125 -6.6875 C 7.992188 -6.4375 8.742188 -6.023438 9.203125 -5.453125 C 9.671875 -4.890625 9.90625 -4.179688 9.90625 -3.328125 C 9.90625 -2.617188 9.738281 -2 9.40625 -1.46875 C 9.070312 -0.9375 8.566406 -0.519531 7.890625 -0.21875 C 7.222656 0.0820312 6.40625 0.234375 5.4375 0.234375 Z M 5.4375 0.234375 "/></g></g></g><g fill="#ffffff" fill-opacity="1"><g transform="translate(229.463535, 317.944845)"><g/></g></g><g fill="#ffffff" fill-opacity="1"><g transform="translate(234.892497, 317.944845)"><g><path d="M 6.1875 0.234375 C 5.226562 0.234375 4.378906 0.00390625 3.640625 -0.453125 C 2.910156 -0.910156 2.335938 -1.601562 1.921875 -2.53125 C 1.515625 -3.457031 1.3125 -4.601562 1.3125 -5.96875 C 1.3125 -7.320312 1.523438 -8.460938 1.953125 -9.390625 C 2.390625 -10.316406 2.988281 -11.007812 3.75 -11.46875 C 4.507812 -11.925781 5.390625 -12.15625 6.390625 -12.15625 C 7.179688 -12.15625 7.894531 -12.003906 8.53125 -11.703125 C 9.164062 -11.410156 9.710938 -10.921875 10.171875 -10.234375 L 10.390625 -10.28125 L 10.390625 -16.71875 L 12.15625 -16.71875 L 12.15625 0 L 10.390625 0 L 10.390625 -1.734375 L 10.171875 -1.78125 C 9.773438 -1.1875 9.242188 -0.703125 8.578125 -0.328125 C 7.910156 0.046875 7.113281 0.234375 6.1875 0.234375 Z M 6.734375 -1.359375 C 7.847656 -1.359375 8.734375 -1.738281 9.390625 -2.5 C 10.054688 -3.257812 10.390625 -4.414062 10.390625 -5.96875 C 10.390625 -7.519531 10.054688 -8.675781 9.390625 -9.4375 C 8.734375 -10.195312 7.847656 -10.578125 6.734375 -10.578125 C 5.585938 -10.578125 4.703125 -10.207031 4.078125 -9.46875 C 3.460938 -8.726562 3.15625 -7.5625 3.15625 -5.96875 C 3.15625 -2.894531 4.347656 -1.359375 6.734375 -1.359375 Z M 6.734375 -1.359375 "/></g></g></g><g fill="#ffffff" fill-opacity="1"><g transform="translate(249.135412, 317.944845)"><g><path d="M 11.375 -5.5625 L 3.171875 -5.5625 C 3.222656 -4.113281 3.570312 -3.050781 4.21875 -2.375 C 4.863281 -1.695312 5.75 -1.359375 6.875 -1.359375 C 7.71875 -1.359375 8.398438 -1.507812 8.921875 -1.8125 C 9.441406 -2.113281 9.847656 -2.585938 10.140625 -3.234375 L 10.375 -3.234375 L 11.515625 -2.546875 C 11.171875 -1.679688 10.617188 -1 9.859375 -0.5 C 9.097656 -0.0078125 8.101562 0.234375 6.875 0.234375 C 5.71875 0.234375 4.722656 0.00390625 3.890625 -0.453125 C 3.066406 -0.910156 2.429688 -1.597656 1.984375 -2.515625 C 1.535156 -3.441406 1.3125 -4.59375 1.3125 -5.96875 C 1.3125 -7.320312 1.546875 -8.460938 2.015625 -9.390625 C 2.484375 -10.316406 3.128906 -11.007812 3.953125 -11.46875 C 4.773438 -11.925781 5.710938 -12.15625 6.765625 -12.15625 C 8.296875 -12.15625 9.488281 -11.722656 10.34375 -10.859375 C 11.195312 -10.003906 11.628906 -8.726562 11.640625 -7.03125 C 11.640625 -6.363281 11.625 -5.914062 11.59375 -5.6875 Z M 9.90625 -7.03125 C 9.875 -8.300781 9.585938 -9.222656 9.046875 -9.796875 C 8.515625 -10.378906 7.753906 -10.671875 6.765625 -10.671875 C 5.710938 -10.671875 4.890625 -10.378906 4.296875 -9.796875 C 3.703125 -9.210938 3.34375 -8.289062 3.21875 -7.03125 Z M 9.90625 -7.03125 "/></g></g></g><g fill="#ffffff" fill-opacity="1"><g transform="translate(261.853459, 317.944845)"><g><path d="M 2.078125 0 L 2.078125 -11.9375 L 3.75 -11.9375 L 3.75 -10.171875 L 3.984375 -10.125 C 4.390625 -10.789062 4.878906 -11.296875 5.453125 -11.640625 C 6.023438 -11.984375 6.710938 -12.15625 7.515625 -12.15625 C 8.429688 -12.15625 9.140625 -11.976562 9.640625 -11.625 C 10.148438 -11.28125 10.546875 -10.71875 10.828125 -9.9375 L 11.0625 -9.9375 C 11.46875 -10.664062 11.972656 -11.21875 12.578125 -11.59375 C 13.179688 -11.96875 13.921875 -12.15625 14.796875 -12.15625 C 16.023438 -12.15625 16.941406 -11.820312 17.546875 -11.15625 C 18.148438 -10.5 18.453125 -9.492188 18.453125 -8.140625 L 18.453125 0 L 16.6875 0 L 16.6875 -8.09375 C 16.6875 -8.957031 16.503906 -9.59375 16.140625 -10 C 15.773438 -10.414062 15.1875 -10.625 14.375 -10.625 C 13.425781 -10.625 12.648438 -10.273438 12.046875 -9.578125 C 11.441406 -8.890625 11.140625 -7.753906 11.140625 -6.171875 L 11.140625 0 L 9.375 0 L 9.375 -8.09375 C 9.375 -8.957031 9.191406 -9.59375 8.828125 -10 C 8.460938 -10.414062 7.878906 -10.625 7.078125 -10.625 C 6.117188 -10.625 5.335938 -10.285156 4.734375 -9.609375 C 4.140625 -8.941406 3.84375 -7.851562 3.84375 -6.34375 L 3.84375 0 Z M 2.078125 0 "/></g></g></g><g fill="#ffffff" fill-opacity="1"><g transform="translate(282.185031, 317.944845)"><g><path d="M 6.84375 0.234375 C 5.71875 0.234375 4.738281 -0.00390625 3.90625 -0.484375 C 3.070312 -0.960938 2.429688 -1.664062 1.984375 -2.59375 C 1.535156 -3.519531 1.3125 -4.644531 1.3125 -5.96875 C 1.3125 -7.28125 1.535156 -8.398438 1.984375 -9.328125 C 2.429688 -10.265625 3.070312 -10.96875 3.90625 -11.4375 C 4.738281 -11.914062 5.71875 -12.15625 6.84375 -12.15625 C 7.96875 -12.15625 8.945312 -11.914062 9.78125 -11.4375 C 10.613281 -10.96875 11.253906 -10.265625 11.703125 -9.328125 C 12.160156 -8.398438 12.390625 -7.28125 12.390625 -5.96875 C 12.390625 -4.644531 12.160156 -3.519531 11.703125 -2.59375 C 11.253906 -1.664062 10.613281 -0.960938 9.78125 -0.484375 C 8.945312 -0.00390625 7.96875 0.234375 6.84375 0.234375 Z M 6.84375 -1.359375 C 8.039062 -1.359375 8.953125 -1.734375 9.578125 -2.484375 C 10.210938 -3.234375 10.53125 -4.394531 10.53125 -5.96875 C 10.53125 -7.539062 10.210938 -8.703125 9.578125 -9.453125 C 8.953125 -10.203125 8.039062 -10.578125 6.84375 -10.578125 C 5.65625 -10.578125 4.742188 -10.195312 4.109375 -9.4375 C 3.472656 -8.6875 3.15625 -7.53125 3.15625 -5.96875 C 3.15625 -4.394531 3.472656 -3.234375 4.109375 -2.484375 C 4.742188 -1.734375 5.65625 -1.359375 6.84375 -1.359375 Z M 6.84375 -1.359375 "/></g></g></g><g fill="#ffffff" fill-opacity="1"><g transform="translate(295.876397, 317.944845)"><g><path d="M 2.078125 0 L 2.078125 -11.9375 L 3.75 -11.9375 L 3.75 -10.0625 L 3.984375 -10 C 4.378906 -10.707031 4.882812 -11.242188 5.5 -11.609375 C 6.113281 -11.972656 6.863281 -12.15625 7.75 -12.15625 C 9.1875 -12.15625 10.226562 -11.789062 10.875 -11.0625 C 11.519531 -10.332031 11.84375 -9.207031 11.84375 -7.6875 L 11.84375 0 L 10.078125 0 L 10.078125 -7.640625 C 10.078125 -8.359375 9.984375 -8.9375 9.796875 -9.375 C 9.617188 -9.8125 9.335938 -10.128906 8.953125 -10.328125 C 8.566406 -10.523438 8.0625 -10.625 7.4375 -10.625 C 6.363281 -10.625 5.492188 -10.269531 4.828125 -9.5625 C 4.171875 -8.851562 3.84375 -7.707031 3.84375 -6.125 L 3.84375 0 Z M 2.078125 0 "/></g></g></g><g fill="#ffffff" fill-opacity="1"><g transform="translate(309.611023, 317.944845)"><g><path d="M 5.4375 0.234375 C 4.6875 0.234375 3.992188 0.132812 3.359375 -0.0625 C 2.722656 -0.269531 2.179688 -0.546875 1.734375 -0.890625 C 1.296875 -1.234375 0.988281 -1.625 0.8125 -2.0625 L 1.84375 -3.140625 L 2.078125 -3.140625 C 2.460938 -2.546875 2.929688 -2.097656 3.484375 -1.796875 C 4.035156 -1.503906 4.6875 -1.359375 5.4375 -1.359375 C 6.320312 -1.359375 6.992188 -1.523438 7.453125 -1.859375 C 7.910156 -2.203125 8.140625 -2.679688 8.140625 -3.296875 C 8.140625 -3.765625 8 -4.148438 7.71875 -4.453125 C 7.4375 -4.765625 6.988281 -5 6.375 -5.15625 L 4.359375 -5.640625 C 3.285156 -5.898438 2.5 -6.3125 2 -6.875 C 1.507812 -7.4375 1.265625 -8.132812 1.265625 -8.96875 C 1.265625 -9.613281 1.429688 -10.175781 1.765625 -10.65625 C 2.097656 -11.132812 2.570312 -11.503906 3.1875 -11.765625 C 3.8125 -12.023438 4.554688 -12.15625 5.421875 -12.15625 C 6.515625 -12.15625 7.375 -12 8 -11.6875 C 8.632812 -11.382812 9.128906 -10.960938 9.484375 -10.421875 L 8.5 -9.4375 L 8.28125 -9.4375 C 7.894531 -9.882812 7.472656 -10.203125 7.015625 -10.390625 C 6.566406 -10.585938 6.035156 -10.6875 5.421875 -10.6875 C 4.628906 -10.6875 4.023438 -10.546875 3.609375 -10.265625 C 3.191406 -9.984375 2.984375 -9.578125 2.984375 -9.046875 C 2.984375 -8.554688 3.128906 -8.164062 3.421875 -7.875 C 3.722656 -7.582031 4.238281 -7.34375 4.96875 -7.15625 L 6.953125 -6.6875 C 7.992188 -6.4375 8.742188 -6.023438 9.203125 -5.453125 C 9.671875 -4.890625 9.90625 -4.179688 9.90625 -3.328125 C 9.90625 -2.617188 9.738281 -2 9.40625 -1.46875 C 9.070312 -0.9375 8.566406 -0.519531 7.890625 -0.21875 C 7.222656 0.0820312 6.40625 0.234375 5.4375 0.234375 Z M 5.4375 0.234375 "/></g></g></g><g fill="#ffffff" fill-opacity="1"><g transform="translate(320.641982, 317.944845)"><g><path d="M 8.078125 -1.890625 L 8.640625 -0.625 C 8.359375 -0.34375 7.988281 -0.128906 7.53125 0.015625 C 7.070312 0.160156 6.570312 0.234375 6.03125 0.234375 C 3.757812 0.234375 2.625 -0.921875 2.625 -3.234375 L 2.625 -10.5 L 0.546875 -10.5 L 0.546875 -11.9375 L 2.625 -11.9375 L 2.625 -14.46875 L 4.375 -14.75 L 4.375 -11.9375 L 8.21875 -11.9375 L 8.21875 -10.5 L 4.375 -10.5 L 4.375 -3.40625 C 4.375 -2.039062 4.972656 -1.359375 6.171875 -1.359375 C 6.816406 -1.359375 7.375 -1.535156 7.84375 -1.890625 Z M 8.078125 -1.890625 "/></g></g></g><g fill="#ffffff" fill-opacity="1"><g transform="translate(329.726301, 317.944845)"><g><path d="M 2.078125 0 L 2.078125 -11.9375 L 3.75 -11.9375 L 3.75 -10.0625 L 3.984375 -10 C 4.535156 -11.363281 5.582031 -12.046875 7.125 -12.046875 C 7.9375 -12.046875 8.546875 -11.894531 8.953125 -11.59375 L 8.5 -10.109375 L 8.28125 -10.0625 C 7.832031 -10.28125 7.34375 -10.390625 6.8125 -10.390625 C 5.851562 -10.390625 5.117188 -10.03125 4.609375 -9.3125 C 4.097656 -8.601562 3.84375 -7.453125 3.84375 -5.859375 L 3.84375 0 Z M 2.078125 0 "/></g></g></g><g fill="#ffffff" fill-opacity="1"><g transform="translate(338.71322, 317.944845)"><g><path d="M 4.921875 0.234375 C 3.742188 0.234375 2.820312 -0.0703125 2.15625 -0.6875 C 1.5 -1.300781 1.171875 -2.179688 1.171875 -3.328125 C 1.171875 -4.023438 1.316406 -4.617188 1.609375 -5.109375 C 1.910156 -5.597656 2.363281 -5.992188 2.96875 -6.296875 C 3.582031 -6.609375 4.382812 -6.847656 5.375 -7.015625 C 6.238281 -7.160156 6.894531 -7.320312 7.34375 -7.5 C 7.800781 -7.675781 8.109375 -7.875 8.265625 -8.09375 C 8.421875 -8.320312 8.5 -8.609375 8.5 -8.953125 C 8.5 -9.492188 8.3125 -9.90625 7.9375 -10.1875 C 7.5625 -10.476562 6.960938 -10.625 6.140625 -10.625 C 5.367188 -10.625 4.707031 -10.472656 4.15625 -10.171875 C 3.601562 -9.867188 3.097656 -9.425781 2.640625 -8.84375 L 2.421875 -8.84375 L 1.5625 -10.0625 C 2.0625 -10.707031 2.703125 -11.21875 3.484375 -11.59375 C 4.265625 -11.96875 5.148438 -12.15625 6.140625 -12.15625 C 7.546875 -12.15625 8.582031 -11.847656 9.25 -11.234375 C 9.914062 -10.617188 10.25 -9.765625 10.25 -8.671875 L 10.25 -2.34375 C 10.25 -1.6875 10.53125 -1.359375 11.09375 -1.359375 C 11.28125 -1.359375 11.460938 -1.390625 11.640625 -1.453125 L 11.796875 -1.40625 L 12 -0.1875 C 11.863281 -0.09375 11.691406 -0.0234375 11.484375 0.015625 C 11.273438 0.0664062 11.054688 0.09375 10.828125 0.09375 C 10.171875 0.09375 9.675781 -0.0507812 9.34375 -0.34375 C 9.007812 -0.632812 8.796875 -1.0625 8.703125 -1.625 L 8.46875 -1.640625 C 8.132812 -1.015625 7.675781 -0.546875 7.09375 -0.234375 C 6.519531 0.078125 5.796875 0.234375 4.921875 0.234375 Z M 5.3125 -1.171875 C 5.976562 -1.171875 6.550781 -1.320312 7.03125 -1.625 C 7.519531 -1.9375 7.894531 -2.367188 8.15625 -2.921875 C 8.414062 -3.484375 8.546875 -4.128906 8.546875 -4.859375 L 8.546875 -6.375 L 8.34375 -6.421875 C 8.070312 -6.234375 7.742188 -6.070312 7.359375 -5.9375 C 6.984375 -5.8125 6.453125 -5.703125 5.765625 -5.609375 C 5.078125 -5.515625 4.523438 -5.367188 4.109375 -5.171875 C 3.703125 -4.972656 3.410156 -4.722656 3.234375 -4.421875 C 3.066406 -4.128906 2.984375 -3.765625 2.984375 -3.328125 C 2.984375 -2.617188 3.1875 -2.082031 3.59375 -1.71875 C 4.007812 -1.351562 4.582031 -1.171875 5.3125 -1.171875 Z M 5.3125 -1.171875 "/></g></g></g><g fill="#ffffff" fill-opacity="1"><g transform="translate(350.912117, 317.944845)"><g><path d="M 8.078125 -1.890625 L 8.640625 -0.625 C 8.359375 -0.34375 7.988281 -0.128906 7.53125 0.015625 C 7.070312 0.160156 6.570312 0.234375 6.03125 0.234375 C 3.757812 0.234375 2.625 -0.921875 2.625 -3.234375 L 2.625 -10.5 L 0.546875 -10.5 L 0.546875 -11.9375 L 2.625 -11.9375 L 2.625 -14.46875 L 4.375 -14.75 L 4.375 -11.9375 L 8.21875 -11.9375 L 8.21875 -10.5 L 4.375 -10.5 L 4.375 -3.40625 C 4.375 -2.039062 4.972656 -1.359375 6.171875 -1.359375 C 6.816406 -1.359375 7.375 -1.535156 7.84375 -1.890625 Z M 8.078125 -1.890625 "/></g></g></g><g fill="#ffffff" fill-opacity="1"><g transform="translate(359.8558, 317.944845)"><g><path d="M 11.375 -5.5625 L 3.171875 -5.5625 C 3.222656 -4.113281 3.570312 -3.050781 4.21875 -2.375 C 4.863281 -1.695312 5.75 -1.359375 6.875 -1.359375 C 7.71875 -1.359375 8.398438 -1.507812 8.921875 -1.8125 C 9.441406 -2.113281 9.847656 -2.585938 10.140625 -3.234375 L 10.375 -3.234375 L 11.515625 -2.546875 C 11.171875 -1.679688 10.617188 -1 9.859375 -0.5 C 9.097656 -0.0078125 8.101562 0.234375 6.875 0.234375 C 5.71875 0.234375 4.722656 0.00390625 3.890625 -0.453125 C 3.066406 -0.910156 2.429688 -1.597656 1.984375 -2.515625 C 1.535156 -3.441406 1.3125 -4.59375 1.3125 -5.96875 C 1.3125 -7.320312 1.546875 -8.460938 2.015625 -9.390625 C 2.484375 -10.316406 3.128906 -11.007812 3.953125 -11.46875 C 4.773438 -11.925781 5.710938 -12.15625 6.765625 -12.15625 C 8.296875 -12.15625 9.488281 -11.722656 10.34375 -10.859375 C 11.195312 -10.003906 11.628906 -8.726562 11.640625 -7.03125 C 11.640625 -6.363281 11.625 -5.914062 11.59375 -5.6875 Z M 9.90625 -7.03125 C 9.875 -8.300781 9.585938 -9.222656 9.046875 -9.796875 C 8.515625 -10.378906 7.753906 -10.671875 6.765625 -10.671875 C 5.710938 -10.671875 4.890625 -10.378906 4.296875 -9.796875 C 3.703125 -9.210938 3.34375 -8.289062 3.21875 -7.03125 Z M 9.90625 -7.03125 "/></g></g></g><g fill="#ffffff" fill-opacity="1"><g transform="translate(372.573847, 317.944845)"><g><path d="M 5.4375 0.234375 C 4.6875 0.234375 3.992188 0.132812 3.359375 -0.0625 C 2.722656 -0.269531 2.179688 -0.546875 1.734375 -0.890625 C 1.296875 -1.234375 0.988281 -1.625 0.8125 -2.0625 L 1.84375 -3.140625 L 2.078125 -3.140625 C 2.460938 -2.546875 2.929688 -2.097656 3.484375 -1.796875 C 4.035156 -1.503906 4.6875 -1.359375 5.4375 -1.359375 C 6.320312 -1.359375 6.992188 -1.523438 7.453125 -1.859375 C 7.910156 -2.203125 8.140625 -2.679688 8.140625 -3.296875 C 8.140625 -3.765625 8 -4.148438 7.71875 -4.453125 C 7.4375 -4.765625 6.988281 -5 6.375 -5.15625 L 4.359375 -5.640625 C 3.285156 -5.898438 2.5 -6.3125 2 -6.875 C 1.507812 -7.4375 1.265625 -8.132812 1.265625 -8.96875 C 1.265625 -9.613281 1.429688 -10.175781 1.765625 -10.65625 C 2.097656 -11.132812 2.570312 -11.503906 3.1875 -11.765625 C 3.8125 -12.023438 4.554688 -12.15625 5.421875 -12.15625 C 6.515625 -12.15625 7.375 -12 8 -11.6875 C 8.632812 -11.382812 9.128906 -10.960938 9.484375 -10.421875 L 8.5 -9.4375 L 8.28125 -9.4375 C 7.894531 -9.882812 7.472656 -10.203125 7.015625 -10.390625 C 6.566406 -10.585938 6.035156 -10.6875 5.421875 -10.6875 C 4.628906 -10.6875 4.023438 -10.546875 3.609375 -10.265625 C 3.191406 -9.984375 2.984375 -9.578125 2.984375 -9.046875 C 2.984375 -8.554688 3.128906 -8.164062 3.421875 -7.875 C 3.722656 -7.582031 4.238281 -7.34375 4.96875 -7.15625 L 6.953125 -6.6875 C 7.992188 -6.4375 8.742188 -6.023438 9.203125 -5.453125 C 9.671875 -4.890625 9.90625 -4.179688 9.90625 -3.328125 C 9.90625 -2.617188 9.738281 -2 9.40625 -1.46875 C 9.070312 -0.9375 8.566406 -0.519531 7.890625 -0.21875 C 7.222656 0.0820312 6.40625 0.234375 5.4375 0.234375 Z M 5.4375 0.234375 "/></g></g></g><g fill="#ffffff" fill-opacity="1"><g transform="translate(383.604806, 317.944845)"><g/></g></g><g fill="#ffffff" fill-opacity="1"><g transform="translate(389.033768, 317.944845)"><g><path d="M 5.890625 0.234375 C 4.546875 0.234375 3.539062 -0.125 2.875 -0.84375 C 2.21875 -1.5625 1.890625 -2.609375 1.890625 -3.984375 L 1.890625 -11.9375 L 3.65625 -11.9375 L 3.65625 -4.03125 C 3.65625 -2.21875 4.503906 -1.3125 6.203125 -1.3125 C 7.285156 -1.3125 8.140625 -1.660156 8.765625 -2.359375 C 9.398438 -3.066406 9.71875 -4.21875 9.71875 -5.8125 L 9.71875 -11.9375 L 11.484375 -11.9375 L 11.484375 0 L 9.8125 0 L 9.8125 -1.875 L 9.578125 -1.921875 C 9.171875 -1.191406 8.679688 -0.648438 8.109375 -0.296875 C 7.535156 0.0546875 6.796875 0.234375 5.890625 0.234375 Z M 5.890625 0.234375 "/></g></g></g><g fill="#ffffff" fill-opacity="1"><g transform="translate(402.584544, 317.944845)"><g><path d="M 2.078125 0 L 2.078125 -11.9375 L 3.75 -11.9375 L 3.75 -10.0625 L 3.984375 -10 C 4.378906 -10.707031 4.882812 -11.242188 5.5 -11.609375 C 6.113281 -11.972656 6.863281 -12.15625 7.75 -12.15625 C 9.1875 -12.15625 10.226562 -11.789062 10.875 -11.0625 C 11.519531 -10.332031 11.84375 -9.207031 11.84375 -7.6875 L 11.84375 0 L 10.078125 0 L 10.078125 -7.640625 C 10.078125 -8.359375 9.984375 -8.9375 9.796875 -9.375 C 9.617188 -9.8125 9.335938 -10.128906 8.953125 -10.328125 C 8.566406 -10.523438 8.0625 -10.625 7.4375 -10.625 C 6.363281 -10.625 5.492188 -10.269531 4.828125 -9.5625 C 4.171875 -8.851562 3.84375 -7.707031 3.84375 -6.125 L 3.84375 0 Z M 2.078125 0 "/></g></g></g><g fill="#ffffff" fill-opacity="1"><g transform="translate(416.232629, 317.944845)"><g><path d="M 8.078125 -1.890625 L 8.640625 -0.625 C 8.359375 -0.34375 7.988281 -0.128906 7.53125 0.015625 C 7.070312 0.160156 6.570312 0.234375 6.03125 0.234375 C 3.757812 0.234375 2.625 -0.921875 2.625 -3.234375 L 2.625 -10.5 L 0.546875 -10.5 L 0.546875 -11.9375 L 2.625 -11.9375 L 2.625 -14.46875 L 4.375 -14.75 L 4.375 -11.9375 L 8.21875 -11.9375 L 8.21875 -10.5 L 4.375 -10.5 L 4.375 -3.40625 C 4.375 -2.039062 4.972656 -1.359375 6.171875 -1.359375 C 6.816406 -1.359375 7.375 -1.535156 7.84375 -1.890625 Z M 8.078125 -1.890625 "/></g></g></g><g fill="#ffffff" fill-opacity="1"><g transform="translate(425.316949, 317.944845)"><g><path d="M 2.078125 0 L 2.078125 -11.9375 L 3.75 -11.9375 L 3.75 -10.0625 L 3.984375 -10 C 4.535156 -11.363281 5.582031 -12.046875 7.125 -12.046875 C 7.9375 -12.046875 8.546875 -11.894531 8.953125 -11.59375 L 8.5 -10.109375 L 8.28125 -10.0625 C 7.832031 -10.28125 7.34375 -10.390625 6.8125 -10.390625 C 5.851562 -10.390625 5.117188 -10.03125 4.609375 -9.3125 C 4.097656 -8.601562 3.84375 -7.453125 3.84375 -5.859375 L 3.84375 0 Z M 2.078125 0 "/></g></g></g><g fill="#ffffff" fill-opacity="1"><g transform="translate(434.531044, 317.944845)"><g><path d="M 5.890625 0.234375 C 4.546875 0.234375 3.539062 -0.125 2.875 -0.84375 C 2.21875 -1.5625 1.890625 -2.609375 1.890625 -3.984375 L 1.890625 -11.9375 L 3.65625 -11.9375 L 3.65625 -4.03125 C 3.65625 -2.21875 4.503906 -1.3125 6.203125 -1.3125 C 7.285156 -1.3125 8.140625 -1.660156 8.765625 -2.359375 C 9.398438 -3.066406 9.71875 -4.21875 9.71875 -5.8125 L 9.71875 -11.9375 L 11.484375 -11.9375 L 11.484375 0 L 9.8125 0 L 9.8125 -1.875 L 9.578125 -1.921875 C 9.171875 -1.191406 8.679688 -0.648438 8.109375 -0.296875 C 7.535156 0.0546875 6.796875 0.234375 5.890625 0.234375 Z M 5.890625 0.234375 "/></g></g></g><g fill="#ffffff" fill-opacity="1"><g transform="translate(448.081832, 317.944845)"><g><path d="M 5.4375 0.234375 C 4.6875 0.234375 3.992188 0.132812 3.359375 -0.0625 C 2.722656 -0.269531 2.179688 -0.546875 1.734375 -0.890625 C 1.296875 -1.234375 0.988281 -1.625 0.8125 -2.0625 L 1.84375 -3.140625 L 2.078125 -3.140625 C 2.460938 -2.546875 2.929688 -2.097656 3.484375 -1.796875 C 4.035156 -1.503906 4.6875 -1.359375 5.4375 -1.359375 C 6.320312 -1.359375 6.992188 -1.523438 7.453125 -1.859375 C 7.910156 -2.203125 8.140625 -2.679688 8.140625 -3.296875 C 8.140625 -3.765625 8 -4.148438 7.71875 -4.453125 C 7.4375 -4.765625 6.988281 -5 6.375 -5.15625 L 4.359375 -5.640625 C 3.285156 -5.898438 2.5 -6.3125 2 -6.875 C 1.507812 -7.4375 1.265625 -8.132812 1.265625 -8.96875 C 1.265625 -9.613281 1.429688 -10.175781 1.765625 -10.65625 C 2.097656 -11.132812 2.570312 -11.503906 3.1875 -11.765625 C 3.8125 -12.023438 4.554688 -12.15625 5.421875 -12.15625 C 6.515625 -12.15625 7.375 -12 8 -11.6875 C 8.632812 -11.382812 9.128906 -10.960938 9.484375 -10.421875 L 8.5 -9.4375 L 8.28125 -9.4375 C 7.894531 -9.882812 7.472656 -10.203125 7.015625 -10.390625 C 6.566406 -10.585938 6.035156 -10.6875 5.421875 -10.6875 C 4.628906 -10.6875 4.023438 -10.546875 3.609375 -10.265625 C 3.191406 -9.984375 2.984375 -9.578125 2.984375 -9.046875 C 2.984375 -8.554688 3.128906 -8.164062 3.421875 -7.875 C 3.722656 -7.582031 4.238281 -7.34375 4.96875 -7.15625 L 6.953125 -6.6875 C 7.992188 -6.4375 8.742188 -6.023438 9.203125 -5.453125 C 9.671875 -4.890625 9.90625 -4.179688 9.90625 -3.328125 C 9.90625 -2.617188 9.738281 -2 9.40625 -1.46875 C 9.070312 -0.9375 8.566406 -0.519531 7.890625 -0.21875 C 7.222656 0.0820312 6.40625 0.234375 5.4375 0.234375 Z M 5.4375 0.234375 "/></g></g></g><g fill="#ffffff" fill-opacity="1"><g transform="translate(459.112791, 317.944845)"><g><path d="M 8.078125 -1.890625 L 8.640625 -0.625 C 8.359375 -0.34375 7.988281 -0.128906 7.53125 0.015625 C 7.070312 0.160156 6.570312 0.234375 6.03125 0.234375 C 3.757812 0.234375 2.625 -0.921875 2.625 -3.234375 L 2.625 -10.5 L 0.546875 -10.5 L 0.546875 -11.9375 L 2.625 -11.9375 L 2.625 -14.46875 L 4.375 -14.75 L 4.375 -11.9375 L 8.21875 -11.9375 L 8.21875 -10.5 L 4.375 -10.5 L 4.375 -3.40625 C 4.375 -2.039062 4.972656 -1.359375 6.171875 -1.359375 C 6.816406 -1.359375 7.375 -1.535156 7.84375 -1.890625 Z M 8.078125 -1.890625 "/></g></g></g><g fill="#ffffff" fill-opacity="1"><g transform="translate(468.056462, 317.944845)"><g><path d="M 11.375 -5.5625 L 3.171875 -5.5625 C 3.222656 -4.113281 3.570312 -3.050781 4.21875 -2.375 C 4.863281 -1.695312 5.75 -1.359375 6.875 -1.359375 C 7.71875 -1.359375 8.398438 -1.507812 8.921875 -1.8125 C 9.441406 -2.113281 9.847656 -2.585938 10.140625 -3.234375 L 10.375 -3.234375 L 11.515625 -2.546875 C 11.171875 -1.679688 10.617188 -1 9.859375 -0.5 C 9.097656 -0.0078125 8.101562 0.234375 6.875 0.234375 C 5.71875 0.234375 4.722656 0.00390625 3.890625 -0.453125 C 3.066406 -0.910156 2.429688 -1.597656 1.984375 -2.515625 C 1.535156 -3.441406 1.3125 -4.59375 1.3125 -5.96875 C 1.3125 -7.320312 1.546875 -8.460938 2.015625 -9.390625 C 2.484375 -10.316406 3.128906 -11.007812 3.953125 -11.46875 C 4.773438 -11.925781 5.710938 -12.15625 6.765625 -12.15625 C 8.296875 -12.15625 9.488281 -11.722656 10.34375 -10.859375 C 11.195312 -10.003906 11.628906 -8.726562 11.640625 -7.03125 C 11.640625 -6.363281 11.625 -5.914062 11.59375 -5.6875 Z M 9.90625 -7.03125 C 9.875 -8.300781 9.585938 -9.222656 9.046875 -9.796875 C 8.515625 -10.378906 7.753906 -10.671875 6.765625 -10.671875 C 5.710938 -10.671875 4.890625 -10.378906 4.296875 -9.796875 C 3.703125 -9.210938 3.34375 -8.289062 3.21875 -7.03125 Z M 9.90625 -7.03125 "/></g></g></g><g fill="#ffffff" fill-opacity="1"><g transform="translate(480.780212, 317.944845)"><g><path d="M 6.1875 0.234375 C 5.226562 0.234375 4.378906 0.00390625 3.640625 -0.453125 C 2.910156 -0.910156 2.335938 -1.601562 1.921875 -2.53125 C 1.515625 -3.457031 1.3125 -4.601562 1.3125 -5.96875 C 1.3125 -7.320312 1.523438 -8.460938 1.953125 -9.390625 C 2.390625 -10.316406 2.988281 -11.007812 3.75 -11.46875 C 4.507812 -11.925781 5.390625 -12.15625 6.390625 -12.15625 C 7.179688 -12.15625 7.894531 -12.003906 8.53125 -11.703125 C 9.164062 -11.410156 9.710938 -10.921875 10.171875 -10.234375 L 10.390625 -10.28125 L 10.390625 -16.71875 L 12.15625 -16.71875 L 12.15625 0 L 10.390625 0 L 10.390625 -1.734375 L 10.171875 -1.78125 C 9.773438 -1.1875 9.242188 -0.703125 8.578125 -0.328125 C 7.910156 0.046875 7.113281 0.234375 6.1875 0.234375 Z M 6.734375 -1.359375 C 7.847656 -1.359375 8.734375 -1.738281 9.390625 -2.5 C 10.054688 -3.257812 10.390625 -4.414062 10.390625 -5.96875 C 10.390625 -7.519531 10.054688 -8.675781 9.390625 -9.4375 C 8.734375 -10.195312 7.847656 -10.578125 6.734375 -10.578125 C 5.585938 -10.578125 4.703125 -10.207031 4.078125 -9.46875 C 3.460938 -8.726562 3.15625 -7.5625 3.15625 -5.96875 C 3.15625 -2.894531 4.347656 -1.359375 6.734375 -1.359375 Z M 6.734375 -1.359375 "/></g></g></g><g fill="#ffffff" fill-opacity="1"><g transform="translate(495.023127, 317.944845)"><g/></g></g><g fill="#ffffff" fill-opacity="1"><g transform="translate(500.452089, 317.944845)"><g><path d="M 11.375 -5.5625 L 3.171875 -5.5625 C 3.222656 -4.113281 3.570312 -3.050781 4.21875 -2.375 C 4.863281 -1.695312 5.75 -1.359375 6.875 -1.359375 C 7.71875 -1.359375 8.398438 -1.507812 8.921875 -1.8125 C 9.441406 -2.113281 9.847656 -2.585938 10.140625 -3.234375 L 10.375 -3.234375 L 11.515625 -2.546875 C 11.171875 -1.679688 10.617188 -1 9.859375 -0.5 C 9.097656 -0.0078125 8.101562 0.234375 6.875 0.234375 C 5.71875 0.234375 4.722656 0.00390625 3.890625 -0.453125 C 3.066406 -0.910156 2.429688 -1.597656 1.984375 -2.515625 C 1.535156 -3.441406 1.3125 -4.59375 1.3125 -5.96875 C 1.3125 -7.320312 1.546875 -8.460938 2.015625 -9.390625 C 2.484375 -10.316406 3.128906 -11.007812 3.953125 -11.46875 C 4.773438 -11.925781 5.710938 -12.15625 6.765625 -12.15625 C 8.296875 -12.15625 9.488281 -11.722656 10.34375 -10.859375 C 11.195312 -10.003906 11.628906 -8.726562 11.640625 -7.03125 C 11.640625 -6.363281 11.625 -5.914062 11.59375 -5.6875 Z M 9.90625 -7.03125 C 9.875 -8.300781 9.585938 -9.222656 9.046875 -9.796875 C 8.515625 -10.378906 7.753906 -10.671875 6.765625 -10.671875 C 5.710938 -10.671875 4.890625 -10.378906 4.296875 -9.796875 C 3.703125 -9.210938 3.34375 -8.289062 3.21875 -7.03125 Z M 9.90625 -7.03125 "/></g></g></g><g fill="#ffffff" fill-opacity="1"><g transform="translate(512.98623, 317.944845)"><g><path d="M 2.484375 0 L 0.546875 0 L 4.234375 -6.1875 L 0.71875 -11.9375 L 2.71875 -11.9375 L 5.46875 -7.34375 L 5.71875 -7.34375 L 8.5 -11.9375 L 10.390625 -11.9375 L 6.984375 -6.1875 L 10.578125 0 L 8.59375 0 L 5.640625 -5.046875 L 5.390625 -5.046875 Z M 2.484375 0 "/></g></g></g><g fill="#ffffff" fill-opacity="1"><g transform="translate(524.103706, 317.944845)"><g><path d="M 8.078125 -1.890625 L 8.640625 -0.625 C 8.359375 -0.34375 7.988281 -0.128906 7.53125 0.015625 C 7.070312 0.160156 6.570312 0.234375 6.03125 0.234375 C 3.757812 0.234375 2.625 -0.921875 2.625 -3.234375 L 2.625 -10.5 L 0.546875 -10.5 L 0.546875 -11.9375 L 2.625 -11.9375 L 2.625 -14.46875 L 4.375 -14.75 L 4.375 -11.9375 L 8.21875 -11.9375 L 8.21875 -10.5 L 4.375 -10.5 L 4.375 -3.40625 C 4.375 -2.039062 4.972656 -1.359375 6.171875 -1.359375 C 6.816406 -1.359375 7.375 -1.535156 7.84375 -1.890625 Z M 8.078125 -1.890625 "/></g></g></g><g fill="#ffffff" fill-opacity="1"><g transform="translate(533.047389, 317.944845)"><g><path d="M 11.375 -5.5625 L 3.171875 -5.5625 C 3.222656 -4.113281 3.570312 -3.050781 4.21875 -2.375 C 4.863281 -1.695312 5.75 -1.359375 6.875 -1.359375 C 7.71875 -1.359375 8.398438 -1.507812 8.921875 -1.8125 C 9.441406 -2.113281 9.847656 -2.585938 10.140625 -3.234375 L 10.375 -3.234375 L 11.515625 -2.546875 C 11.171875 -1.679688 10.617188 -1 9.859375 -0.5 C 9.097656 -0.0078125 8.101562 0.234375 6.875 0.234375 C 5.71875 0.234375 4.722656 0.00390625 3.890625 -0.453125 C 3.066406 -0.910156 2.429688 -1.597656 1.984375 -2.515625 C 1.535156 -3.441406 1.3125 -4.59375 1.3125 -5.96875 C 1.3125 -7.320312 1.546875 -8.460938 2.015625 -9.390625 C 2.484375 -10.316406 3.128906 -11.007812 3.953125 -11.46875 C 4.773438 -11.925781 5.710938 -12.15625 6.765625 -12.15625 C 8.296875 -12.15625 9.488281 -11.722656 10.34375 -10.859375 C 11.195312 -10.003906 11.628906 -8.726562 11.640625 -7.03125 C 11.640625 -6.363281 11.625 -5.914062 11.59375 -5.6875 Z M 9.90625 -7.03125 C 9.875 -8.300781 9.585938 -9.222656 9.046875 -9.796875 C 8.515625 -10.378906 7.753906 -10.671875 6.765625 -10.671875 C 5.710938 -10.671875 4.890625 -10.378906 4.296875 -9.796875 C 3.703125 -9.210938 3.34375 -8.289062 3.21875 -7.03125 Z M 9.90625 -7.03125 "/></g></g></g><g fill="#ffffff" fill-opacity="1"><g transform="translate(545.765436, 317.944845)"><g><path d="M 2.078125 0 L 2.078125 -11.9375 L 3.75 -11.9375 L 3.75 -10.0625 L 3.984375 -10 C 4.535156 -11.363281 5.582031 -12.046875 7.125 -12.046875 C 7.9375 -12.046875 8.546875 -11.894531 8.953125 -11.59375 L 8.5 -10.109375 L 8.28125 -10.0625 C 7.832031 -10.28125 7.34375 -10.390625 6.8125 -10.390625 C 5.851562 -10.390625 5.117188 -10.03125 4.609375 -9.3125 C 4.097656 -8.601562 3.84375 -7.453125 3.84375 -5.859375 L 3.84375 0 Z M 2.078125 0 "/></g></g></g><g fill="#ffffff" fill-opacity="1"><g transform="translate(554.979531, 317.944845)"><g><path d="M 2.078125 0 L 2.078125 -11.9375 L 3.75 -11.9375 L 3.75 -10.0625 L 3.984375 -10 C 4.378906 -10.707031 4.882812 -11.242188 5.5 -11.609375 C 6.113281 -11.972656 6.863281 -12.15625 7.75 -12.15625 C 9.1875 -12.15625 10.226562 -11.789062 10.875 -11.0625 C 11.519531 -10.332031 11.84375 -9.207031 11.84375 -7.6875 L 11.84375 0 L 10.078125 0 L 10.078125 -7.640625 C 10.078125 -8.359375 9.984375 -8.9375 9.796875 -9.375 C 9.617188 -9.8125 9.335938 -10.128906 8.953125 -10.328125 C 8.566406 -10.523438 8.0625 -10.625 7.4375 -10.625 C 6.363281 -10.625 5.492188 -10.269531 4.828125 -9.5625 C 4.171875 -8.851562 3.84375 -7.707031 3.84375 -6.125 L 3.84375 0 Z M 2.078125 0 "/></g></g></g><g fill="#ffffff" fill-opacity="1"><g transform="translate(568.714157, 317.944845)"><g><path d="M 4.921875 0.234375 C 3.742188 0.234375 2.820312 -0.0703125 2.15625 -0.6875 C 1.5 -1.300781 1.171875 -2.179688 1.171875 -3.328125 C 1.171875 -4.023438 1.316406 -4.617188 1.609375 -5.109375 C 1.910156 -5.597656 2.363281 -5.992188 2.96875 -6.296875 C 3.582031 -6.609375 4.382812 -6.847656 5.375 -7.015625 C 6.238281 -7.160156 6.894531 -7.320312 7.34375 -7.5 C 7.800781 -7.675781 8.109375 -7.875 8.265625 -8.09375 C 8.421875 -8.320312 8.5 -8.609375 8.5 -8.953125 C 8.5 -9.492188 8.3125 -9.90625 7.9375 -10.1875 C 7.5625 -10.476562 6.960938 -10.625 6.140625 -10.625 C 5.367188 -10.625 4.707031 -10.472656 4.15625 -10.171875 C 3.601562 -9.867188 3.097656 -9.425781 2.640625 -8.84375 L 2.421875 -8.84375 L 1.5625 -10.0625 C 2.0625 -10.707031 2.703125 -11.21875 3.484375 -11.59375 C 4.265625 -11.96875 5.148438 -12.15625 6.140625 -12.15625 C 7.546875 -12.15625 8.582031 -11.847656 9.25 -11.234375 C 9.914062 -10.617188 10.25 -9.765625 10.25 -8.671875 L 10.25 -2.34375 C 10.25 -1.6875 10.53125 -1.359375 11.09375 -1.359375 C 11.28125 -1.359375 11.460938 -1.390625 11.640625 -1.453125 L 11.796875 -1.40625 L 12 -0.1875 C 11.863281 -0.09375 11.691406 -0.0234375 11.484375 0.015625 C 11.273438 0.0664062 11.054688 0.09375 10.828125 0.09375 C 10.171875 0.09375 9.675781 -0.0507812 9.34375 -0.34375 C 9.007812 -0.632812 8.796875 -1.0625 8.703125 -1.625 L 8.46875 -1.640625 C 8.132812 -1.015625 7.675781 -0.546875 7.09375 -0.234375 C 6.519531 0.078125 5.796875 0.234375 4.921875 0.234375 Z M 5.3125 -1.171875 C 5.976562 -1.171875 6.550781 -1.320312 7.03125 -1.625 C 7.519531 -1.9375 7.894531 -2.367188 8.15625 -2.921875 C 8.414062 -3.484375 8.546875 -4.128906 8.546875 -4.859375 L 8.546875 -6.375 L 8.34375 -6.421875 C 8.070312 -6.234375 7.742188 -6.070312 7.359375 -5.9375 C 6.984375 -5.8125 6.453125 -5.703125 5.765625 -5.609375 C 5.078125 -5.515625 4.523438 -5.367188 4.109375 -5.171875 C 3.703125 -4.972656 3.410156 -4.722656 3.234375 -4.421875 C 3.066406 -4.128906 2.984375 -3.765625 2.984375 -3.328125 C 2.984375 -2.617188 3.1875 -2.082031 3.59375 -1.71875 C 4.007812 -1.351562 4.582031 -1.171875 5.3125 -1.171875 Z M 5.3125 -1.171875 "/></g></g></g><g fill="#ffffff" fill-opacity="1"><g transform="translate(581.05369, 317.944845)"><g><path d="M 4.75 0.234375 C 3.90625 0.234375 3.238281 -0.00390625 2.75 -0.484375 C 2.269531 -0.972656 2.03125 -1.691406 2.03125 -2.640625 L 2.03125 -16.71875 L 3.796875 -16.71875 L 3.796875 -2.765625 C 3.796875 -2.265625 3.890625 -1.90625 4.078125 -1.6875 C 4.273438 -1.46875 4.570312 -1.359375 4.96875 -1.359375 C 5.21875 -1.359375 5.46875 -1.394531 5.71875 -1.46875 L 5.875 -1.421875 L 6.078125 -0.046875 C 5.953125 0.046875 5.765625 0.113281 5.515625 0.15625 C 5.273438 0.207031 5.019531 0.234375 4.75 0.234375 Z M 4.75 0.234375 "/></g></g></g><g fill="#ffffff" fill-opacity="1"><g transform="translate(181.530236, 348.694842)"><g><path d="M 6.84375 0.234375 C 5.789062 0.234375 4.847656 -0.00390625 4.015625 -0.484375 C 3.179688 -0.972656 2.519531 -1.679688 2.03125 -2.609375 C 1.550781 -3.546875 1.3125 -4.664062 1.3125 -5.96875 C 1.3125 -7.269531 1.550781 -8.382812 2.03125 -9.3125 C 2.519531 -10.25 3.179688 -10.957031 4.015625 -11.4375 C 4.847656 -11.914062 5.789062 -12.15625 6.84375 -12.15625 C 8.101562 -12.15625 9.109375 -11.914062 9.859375 -11.4375 C 10.609375 -10.96875 11.148438 -10.335938 11.484375 -9.546875 L 10.28125 -8.671875 L 10.0625 -8.671875 C 9.738281 -9.328125 9.320312 -9.804688 8.8125 -10.109375 C 8.300781 -10.421875 7.644531 -10.578125 6.84375 -10.578125 C 6.113281 -10.578125 5.46875 -10.40625 4.90625 -10.0625 C 4.351562 -9.71875 3.921875 -9.195312 3.609375 -8.5 C 3.304688 -7.8125 3.15625 -6.96875 3.15625 -5.96875 C 3.15625 -4.96875 3.3125 -4.125 3.625 -3.4375 C 3.9375 -2.75 4.367188 -2.226562 4.921875 -1.875 C 5.472656 -1.53125 6.113281 -1.359375 6.84375 -1.359375 C 7.675781 -1.359375 8.363281 -1.546875 8.90625 -1.921875 C 9.445312 -2.296875 9.875 -2.882812 10.1875 -3.6875 L 10.421875 -3.6875 L 11.578125 -3 C 11.265625 -2 10.707031 -1.207031 9.90625 -0.625 C 9.113281 -0.0507812 8.09375 0.234375 6.84375 0.234375 Z M 6.84375 0.234375 "/></g></g></g><g fill="#ffffff" fill-opacity="1"><g transform="translate(193.826511, 348.694842)"><g><path d="M 6.84375 0.234375 C 5.71875 0.234375 4.738281 -0.00390625 3.90625 -0.484375 C 3.070312 -0.960938 2.429688 -1.664062 1.984375 -2.59375 C 1.535156 -3.519531 1.3125 -4.644531 1.3125 -5.96875 C 1.3125 -7.28125 1.535156 -8.398438 1.984375 -9.328125 C 2.429688 -10.265625 3.070312 -10.96875 3.90625 -11.4375 C 4.738281 -11.914062 5.71875 -12.15625 6.84375 -12.15625 C 7.96875 -12.15625 8.945312 -11.914062 9.78125 -11.4375 C 10.613281 -10.96875 11.253906 -10.265625 11.703125 -9.328125 C 12.160156 -8.398438 12.390625 -7.28125 12.390625 -5.96875 C 12.390625 -4.644531 12.160156 -3.519531 11.703125 -2.59375 C 11.253906 -1.664062 10.613281 -0.960938 9.78125 -0.484375 C 8.945312 -0.00390625 7.96875 0.234375 6.84375 0.234375 Z M 6.84375 -1.359375 C 8.039062 -1.359375 8.953125 -1.734375 9.578125 -2.484375 C 10.210938 -3.234375 10.53125 -4.394531 10.53125 -5.96875 C 10.53125 -7.539062 10.210938 -8.703125 9.578125 -9.453125 C 8.953125 -10.203125 8.039062 -10.578125 6.84375 -10.578125 C 5.65625 -10.578125 4.742188 -10.195312 4.109375 -9.4375 C 3.472656 -8.6875 3.15625 -7.53125 3.15625 -5.96875 C 3.15625 -4.394531 3.472656 -3.234375 4.109375 -2.484375 C 4.742188 -1.734375 5.65625 -1.359375 6.84375 -1.359375 Z M 6.84375 -1.359375 "/></g></g></g><g fill="#ffffff" fill-opacity="1"><g transform="translate(207.517877, 348.694842)"><g><path d="M 2.078125 0 L 2.078125 -11.9375 L 3.75 -11.9375 L 3.75 -10.0625 L 3.984375 -10 C 4.378906 -10.707031 4.882812 -11.242188 5.5 -11.609375 C 6.113281 -11.972656 6.863281 -12.15625 7.75 -12.15625 C 9.1875 -12.15625 10.226562 -11.789062 10.875 -11.0625 C 11.519531 -10.332031 11.84375 -9.207031 11.84375 -7.6875 L 11.84375 0 L 10.078125 0 L 10.078125 -7.640625 C 10.078125 -8.359375 9.984375 -8.9375 9.796875 -9.375 C 9.617188 -9.8125 9.335938 -10.128906 8.953125 -10.328125 C 8.566406 -10.523438 8.0625 -10.625 7.4375 -10.625 C 6.363281 -10.625 5.492188 -10.269531 4.828125 -9.5625 C 4.171875 -8.851562 3.84375 -7.707031 3.84375 -6.125 L 3.84375 0 Z M 2.078125 0 "/></g></g></g><g fill="#ffffff" fill-opacity="1"><g transform="translate(221.165963, 348.694842)"><g><path d="M 8.078125 -1.890625 L 8.640625 -0.625 C 8.359375 -0.34375 7.988281 -0.128906 7.53125 0.015625 C 7.070312 0.160156 6.570312 0.234375 6.03125 0.234375 C 3.757812 0.234375 2.625 -0.921875 2.625 -3.234375 L 2.625 -10.5 L 0.546875 -10.5 L 0.546875 -11.9375 L 2.625 -11.9375 L 2.625 -14.46875 L 4.375 -14.75 L 4.375 -11.9375 L 8.21875 -11.9375 L 8.21875 -10.5 L 4.375 -10.5 L 4.375 -3.40625 C 4.375 -2.039062 4.972656 -1.359375 6.171875 -1.359375 C 6.816406 -1.359375 7.375 -1.535156 7.84375 -1.890625 Z M 8.078125 -1.890625 "/></g></g></g><g fill="#ffffff" fill-opacity="1"><g transform="translate(230.109645, 348.694842)"><g><path d="M 11.375 -5.5625 L 3.171875 -5.5625 C 3.222656 -4.113281 3.570312 -3.050781 4.21875 -2.375 C 4.863281 -1.695312 5.75 -1.359375 6.875 -1.359375 C 7.71875 -1.359375 8.398438 -1.507812 8.921875 -1.8125 C 9.441406 -2.113281 9.847656 -2.585938 10.140625 -3.234375 L 10.375 -3.234375 L 11.515625 -2.546875 C 11.171875 -1.679688 10.617188 -1 9.859375 -0.5 C 9.097656 -0.0078125 8.101562 0.234375 6.875 0.234375 C 5.71875 0.234375 4.722656 0.00390625 3.890625 -0.453125 C 3.066406 -0.910156 2.429688 -1.597656 1.984375 -2.515625 C 1.535156 -3.441406 1.3125 -4.59375 1.3125 -5.96875 C 1.3125 -7.320312 1.546875 -8.460938 2.015625 -9.390625 C 2.484375 -10.316406 3.128906 -11.007812 3.953125 -11.46875 C 4.773438 -11.925781 5.710938 -12.15625 6.765625 -12.15625 C 8.296875 -12.15625 9.488281 -11.722656 10.34375 -10.859375 C 11.195312 -10.003906 11.628906 -8.726562 11.640625 -7.03125 C 11.640625 -6.363281 11.625 -5.914062 11.59375 -5.6875 Z M 9.90625 -7.03125 C 9.875 -8.300781 9.585938 -9.222656 9.046875 -9.796875 C 8.515625 -10.378906 7.753906 -10.671875 6.765625 -10.671875 C 5.710938 -10.671875 4.890625 -10.378906 4.296875 -9.796875 C 3.703125 -9.210938 3.34375 -8.289062 3.21875 -7.03125 Z M 9.90625 -7.03125 "/></g></g></g><g fill="#ffffff" fill-opacity="1"><g transform="translate(242.827692, 348.694842)"><g><path d="M 2.078125 0 L 2.078125 -11.9375 L 3.75 -11.9375 L 3.75 -10.0625 L 3.984375 -10 C 4.378906 -10.707031 4.882812 -11.242188 5.5 -11.609375 C 6.113281 -11.972656 6.863281 -12.15625 7.75 -12.15625 C 9.1875 -12.15625 10.226562 -11.789062 10.875 -11.0625 C 11.519531 -10.332031 11.84375 -9.207031 11.84375 -7.6875 L 11.84375 0 L 10.078125 0 L 10.078125 -7.640625 C 10.078125 -8.359375 9.984375 -8.9375 9.796875 -9.375 C 9.617188 -9.8125 9.335938 -10.128906 8.953125 -10.328125 C 8.566406 -10.523438 8.0625 -10.625 7.4375 -10.625 C 6.363281 -10.625 5.492188 -10.269531 4.828125 -9.5625 C 4.171875 -8.851562 3.84375 -7.707031 3.84375 -6.125 L 3.84375 0 Z M 2.078125 0 "/></g></g></g><g fill="#ffffff" fill-opacity="1"><g transform="translate(256.475777, 348.694842)"><g><path d="M 8.078125 -1.890625 L 8.640625 -0.625 C 8.359375 -0.34375 7.988281 -0.128906 7.53125 0.015625 C 7.070312 0.160156 6.570312 0.234375 6.03125 0.234375 C 3.757812 0.234375 2.625 -0.921875 2.625 -3.234375 L 2.625 -10.5 L 0.546875 -10.5 L 0.546875 -11.9375 L 2.625 -11.9375 L 2.625 -14.46875 L 4.375 -14.75 L 4.375 -11.9375 L 8.21875 -11.9375 L 8.21875 -10.5 L 4.375 -10.5 L 4.375 -3.40625 C 4.375 -2.039062 4.972656 -1.359375 6.171875 -1.359375 C 6.816406 -1.359375 7.375 -1.535156 7.84375 -1.890625 Z M 8.078125 -1.890625 "/></g></g></g><g fill="#ffffff" fill-opacity="1"><g transform="translate(265.560097, 348.694842)"><g/></g></g><g fill="#ffffff" fill-opacity="1"><g transform="translate(270.989059, 348.694842)"><g><path d="M 2.078125 0 L 2.078125 -11.9375 L 3.75 -11.9375 L 3.75 -10.0625 L 3.984375 -10 C 4.535156 -11.363281 5.582031 -12.046875 7.125 -12.046875 C 7.9375 -12.046875 8.546875 -11.894531 8.953125 -11.59375 L 8.5 -10.109375 L 8.28125 -10.0625 C 7.832031 -10.28125 7.34375 -10.390625 6.8125 -10.390625 C 5.851562 -10.390625 5.117188 -10.03125 4.609375 -9.3125 C 4.097656 -8.601562 3.84375 -7.453125 3.84375 -5.859375 L 3.84375 0 Z M 2.078125 0 "/></g></g></g><g fill="#ffffff" fill-opacity="1"><g transform="translate(279.889437, 348.694842)"><g><path d="M 11.375 -5.5625 L 3.171875 -5.5625 C 3.222656 -4.113281 3.570312 -3.050781 4.21875 -2.375 C 4.863281 -1.695312 5.75 -1.359375 6.875 -1.359375 C 7.71875 -1.359375 8.398438 -1.507812 8.921875 -1.8125 C 9.441406 -2.113281 9.847656 -2.585938 10.140625 -3.234375 L 10.375 -3.234375 L 11.515625 -2.546875 C 11.171875 -1.679688 10.617188 -1 9.859375 -0.5 C 9.097656 -0.0078125 8.101562 0.234375 6.875 0.234375 C 5.71875 0.234375 4.722656 0.00390625 3.890625 -0.453125 C 3.066406 -0.910156 2.429688 -1.597656 1.984375 -2.515625 C 1.535156 -3.441406 1.3125 -4.59375 1.3125 -5.96875 C 1.3125 -7.320312 1.546875 -8.460938 2.015625 -9.390625 C 2.484375 -10.316406 3.128906 -11.007812 3.953125 -11.46875 C 4.773438 -11.925781 5.710938 -12.15625 6.765625 -12.15625 C 8.296875 -12.15625 9.488281 -11.722656 10.34375 -10.859375 C 11.195312 -10.003906 11.628906 -8.726562 11.640625 -7.03125 C 11.640625 -6.363281 11.625 -5.914062 11.59375 -5.6875 Z M 9.90625 -7.03125 C 9.875 -8.300781 9.585938 -9.222656 9.046875 -9.796875 C 8.515625 -10.378906 7.753906 -10.671875 6.765625 -10.671875 C 5.710938 -10.671875 4.890625 -10.378906 4.296875 -9.796875 C 3.703125 -9.210938 3.34375 -8.289062 3.21875 -7.03125 Z M 9.90625 -7.03125 "/></g></g></g><g fill="#ffffff" fill-opacity="1"><g transform="translate(292.607484, 348.694842)"><g><path d="M 2.078125 0 L 2.078125 -11.9375 L 3.75 -11.9375 L 3.75 -10.0625 L 3.984375 -10 C 4.378906 -10.707031 4.882812 -11.242188 5.5 -11.609375 C 6.113281 -11.972656 6.863281 -12.15625 7.75 -12.15625 C 9.1875 -12.15625 10.226562 -11.789062 10.875 -11.0625 C 11.519531 -10.332031 11.84375 -9.207031 11.84375 -7.6875 L 11.84375 0 L 10.078125 0 L 10.078125 -7.640625 C 10.078125 -8.359375 9.984375 -8.9375 9.796875 -9.375 C 9.617188 -9.8125 9.335938 -10.128906 8.953125 -10.328125 C 8.566406 -10.523438 8.0625 -10.625 7.4375 -10.625 C 6.363281 -10.625 5.492188 -10.269531 4.828125 -9.5625 C 4.171875 -8.851562 3.84375 -7.707031 3.84375 -6.125 L 3.84375 0 Z M 2.078125 0 "/></g></g></g><g fill="#ffffff" fill-opacity="1"><g transform="translate(306.346631, 348.694842)"><g><path d="M 6.1875 0.234375 C 5.226562 0.234375 4.378906 0.00390625 3.640625 -0.453125 C 2.910156 -0.910156 2.335938 -1.601562 1.921875 -2.53125 C 1.515625 -3.457031 1.3125 -4.601562 1.3125 -5.96875 C 1.3125 -7.320312 1.523438 -8.460938 1.953125 -9.390625 C 2.390625 -10.316406 2.988281 -11.007812 3.75 -11.46875 C 4.507812 -11.925781 5.390625 -12.15625 6.390625 -12.15625 C 7.179688 -12.15625 7.894531 -12.003906 8.53125 -11.703125 C 9.164062 -11.410156 9.710938 -10.921875 10.171875 -10.234375 L 10.390625 -10.28125 L 10.390625 -16.71875 L 12.15625 -16.71875 L 12.15625 0 L 10.390625 0 L 10.390625 -1.734375 L 10.171875 -1.78125 C 9.773438 -1.1875 9.242188 -0.703125 8.578125 -0.328125 C 7.910156 0.046875 7.113281 0.234375 6.1875 0.234375 Z M 6.734375 -1.359375 C 7.847656 -1.359375 8.734375 -1.738281 9.390625 -2.5 C 10.054688 -3.257812 10.390625 -4.414062 10.390625 -5.96875 C 10.390625 -7.519531 10.054688 -8.675781 9.390625 -9.4375 C 8.734375 -10.195312 7.847656 -10.578125 6.734375 -10.578125 C 5.585938 -10.578125 4.703125 -10.207031 4.078125 -9.46875 C 3.460938 -8.726562 3.15625 -7.5625 3.15625 -5.96875 C 3.15625 -2.894531 4.347656 -1.359375 6.734375 -1.359375 Z M 6.734375 -1.359375 "/></g></g></g><g fill="#ffffff" fill-opacity="1"><g transform="translate(320.589545, 348.694842)"><g><path d="M 11.375 -5.5625 L 3.171875 -5.5625 C 3.222656 -4.113281 3.570312 -3.050781 4.21875 -2.375 C 4.863281 -1.695312 5.75 -1.359375 6.875 -1.359375 C 7.71875 -1.359375 8.398438 -1.507812 8.921875 -1.8125 C 9.441406 -2.113281 9.847656 -2.585938 10.140625 -3.234375 L 10.375 -3.234375 L 11.515625 -2.546875 C 11.171875 -1.679688 10.617188 -1 9.859375 -0.5 C 9.097656 -0.0078125 8.101562 0.234375 6.875 0.234375 C 5.71875 0.234375 4.722656 0.00390625 3.890625 -0.453125 C 3.066406 -0.910156 2.429688 -1.597656 1.984375 -2.515625 C 1.535156 -3.441406 1.3125 -4.59375 1.3125 -5.96875 C 1.3125 -7.320312 1.546875 -8.460938 2.015625 -9.390625 C 2.484375 -10.316406 3.128906 -11.007812 3.953125 -11.46875 C 4.773438 -11.925781 5.710938 -12.15625 6.765625 -12.15625 C 8.296875 -12.15625 9.488281 -11.722656 10.34375 -10.859375 C 11.195312 -10.003906 11.628906 -8.726562 11.640625 -7.03125 C 11.640625 -6.363281 11.625 -5.914062 11.59375 -5.6875 Z M 9.90625 -7.03125 C 9.875 -8.300781 9.585938 -9.222656 9.046875 -9.796875 C 8.515625 -10.378906 7.753906 -10.671875 6.765625 -10.671875 C 5.710938 -10.671875 4.890625 -10.378906 4.296875 -9.796875 C 3.703125 -9.210938 3.34375 -8.289062 3.21875 -7.03125 Z M 9.90625 -7.03125 "/></g></g></g><g fill="#ffffff" fill-opacity="1"><g transform="translate(333.307592, 348.694842)"><g><path d="M 2.078125 0 L 2.078125 -11.9375 L 3.75 -11.9375 L 3.75 -10.0625 L 3.984375 -10 C 4.535156 -11.363281 5.582031 -12.046875 7.125 -12.046875 C 7.9375 -12.046875 8.546875 -11.894531 8.953125 -11.59375 L 8.5 -10.109375 L 8.28125 -10.0625 C 7.832031 -10.28125 7.34375 -10.390625 6.8125 -10.390625 C 5.851562 -10.390625 5.117188 -10.03125 4.609375 -9.3125 C 4.097656 -8.601562 3.84375 -7.453125 3.84375 -5.859375 L 3.84375 0 Z M 2.078125 0 "/></g></g></g><g fill="#ffffff" fill-opacity="1"><g transform="translate(342.521687, 348.694842)"><g><path d="M 2.96875 -14.234375 C 2.59375 -14.234375 2.285156 -14.347656 2.046875 -14.578125 C 1.816406 -14.816406 1.703125 -15.117188 1.703125 -15.484375 C 1.703125 -15.835938 1.816406 -16.128906 2.046875 -16.359375 C 2.285156 -16.597656 2.59375 -16.71875 2.96875 -16.71875 C 3.34375 -16.71875 3.644531 -16.597656 3.875 -16.359375 C 4.113281 -16.128906 4.234375 -15.835938 4.234375 -15.484375 C 4.234375 -15.117188 4.113281 -14.816406 3.875 -14.578125 C 3.644531 -14.347656 3.34375 -14.234375 2.96875 -14.234375 Z M 2.078125 0 L 2.078125 -11.9375 L 3.84375 -11.9375 L 3.84375 0 Z M 2.078125 0 "/></g></g></g><g fill="#ffffff" fill-opacity="1"><g transform="translate(348.437309, 348.694842)"><g><path d="M 2.078125 0 L 2.078125 -11.9375 L 3.75 -11.9375 L 3.75 -10.0625 L 3.984375 -10 C 4.378906 -10.707031 4.882812 -11.242188 5.5 -11.609375 C 6.113281 -11.972656 6.863281 -12.15625 7.75 -12.15625 C 9.1875 -12.15625 10.226562 -11.789062 10.875 -11.0625 C 11.519531 -10.332031 11.84375 -9.207031 11.84375 -7.6875 L 11.84375 0 L 10.078125 0 L 10.078125 -7.640625 C 10.078125 -8.359375 9.984375 -8.9375 9.796875 -9.375 C 9.617188 -9.8125 9.335938 -10.128906 8.953125 -10.328125 C 8.566406 -10.523438 8.0625 -10.625 7.4375 -10.625 C 6.363281 -10.625 5.492188 -10.269531 4.828125 -9.5625 C 4.171875 -8.851562 3.84375 -7.707031 3.84375 -6.125 L 3.84375 0 Z M 2.078125 0 "/></g></g></g><g fill="#ffffff" fill-opacity="1"><g transform="translate(362.171935, 348.694842)"><g><path d="M 6.140625 5.0625 C 4.265625 5.0625 2.890625 4.75 2.015625 4.125 C 1.148438 3.5 0.71875 2.664062 0.71875 1.625 C 0.71875 0.945312 0.921875 0.410156 1.328125 0.015625 C 1.734375 -0.378906 2.320312 -0.660156 3.09375 -0.828125 L 3.09375 -1.0625 C 2.726562 -1.269531 2.453125 -1.515625 2.265625 -1.796875 C 2.078125 -2.078125 1.984375 -2.410156 1.984375 -2.796875 C 1.984375 -3.265625 2.128906 -3.640625 2.421875 -3.921875 C 2.710938 -4.210938 3.148438 -4.4375 3.734375 -4.59375 L 3.734375 -4.8125 C 2.429688 -5.5 1.78125 -6.613281 1.78125 -8.15625 C 1.78125 -8.9375 1.957031 -9.628906 2.3125 -10.234375 C 2.664062 -10.835938 3.171875 -11.304688 3.828125 -11.640625 C 4.484375 -11.984375 5.25 -12.15625 6.125 -12.15625 C 7.125 -12.15625 7.960938 -11.9375 8.640625 -11.5 C 8.890625 -11.78125 9.078125 -12.082031 9.203125 -12.40625 C 9.328125 -12.726562 9.40625 -13.085938 9.4375 -13.484375 L 9.671875 -13.625 L 11.125 -13.28125 C 11.050781 -12.675781 10.867188 -12.164062 10.578125 -11.75 C 10.285156 -11.332031 9.875 -10.984375 9.34375 -10.703125 L 9.34375 -10.484375 C 9.71875 -10.179688 10 -9.828125 10.1875 -9.421875 C 10.375 -9.015625 10.46875 -8.539062 10.46875 -8 C 10.46875 -7.25 10.285156 -6.570312 9.921875 -5.96875 C 9.554688 -5.375 9.046875 -4.90625 8.390625 -4.5625 C 7.734375 -4.21875 6.976562 -4.046875 6.125 -4.046875 C 6.019531 -4.046875 5.835938 -4.050781 5.578125 -4.0625 C 5.296875 -4.082031 5.082031 -4.09375 4.9375 -4.09375 C 4.5625 -4.09375 4.257812 -3.992188 4.03125 -3.796875 C 3.8125 -3.597656 3.703125 -3.347656 3.703125 -3.046875 C 3.703125 -2.671875 3.820312 -2.394531 4.0625 -2.21875 C 4.3125 -2.039062 4.710938 -1.941406 5.265625 -1.921875 L 8.09375 -1.828125 C 9.3125 -1.785156 10.210938 -1.5 10.796875 -0.96875 C 11.390625 -0.445312 11.6875 0.289062 11.6875 1.25 C 11.6875 1.957031 11.492188 2.597656 11.109375 3.171875 C 10.722656 3.742188 10.113281 4.203125 9.28125 4.546875 C 8.457031 4.890625 7.410156 5.0625 6.140625 5.0625 Z M 6.125 -5.5625 C 6.96875 -5.5625 7.617188 -5.78125 8.078125 -6.21875 C 8.546875 -6.65625 8.78125 -7.273438 8.78125 -8.078125 C 8.78125 -8.890625 8.550781 -9.519531 8.09375 -9.96875 C 7.632812 -10.414062 6.976562 -10.640625 6.125 -10.640625 C 5.269531 -10.640625 4.617188 -10.414062 4.171875 -9.96875 C 3.722656 -9.53125 3.5 -8.898438 3.5 -8.078125 C 3.5 -7.273438 3.722656 -6.65625 4.171875 -6.21875 C 4.617188 -5.78125 5.269531 -5.5625 6.125 -5.5625 Z M 6.140625 3.546875 C 7.023438 3.546875 7.742188 3.445312 8.296875 3.25 C 8.859375 3.0625 9.257812 2.804688 9.5 2.484375 C 9.75 2.160156 9.875 1.800781 9.875 1.40625 C 9.875 1.050781 9.804688 0.765625 9.671875 0.546875 C 9.546875 0.335938 9.332031 0.175781 9.03125 0.0625 C 8.738281 -0.0390625 8.335938 -0.109375 7.828125 -0.140625 L 5.15625 -0.265625 L 4.765625 -0.265625 C 3.273438 -0.242188 2.53125 0.332031 2.53125 1.46875 C 2.53125 2.851562 3.734375 3.546875 6.140625 3.546875 Z M 6.140625 3.546875 "/></g></g></g><g fill="#ffffff" fill-opacity="1"><g transform="translate(374.392508, 348.694842)"><g/></g></g><g fill="#ffffff" fill-opacity="1"><g transform="translate(379.82147, 348.694842)"><g><path d="M 7.546875 0 L 5.125 0 L 0.578125 -11.9375 L 2.484375 -11.9375 L 6.25 -2.015625 L 6.484375 -2.015625 L 10.21875 -11.9375 L 12.078125 -11.9375 Z M 7.546875 0 "/></g></g></g><g fill="#ffffff" fill-opacity="1"><g transform="translate(392.463814, 348.694842)"><g><path d="M 2.96875 -14.234375 C 2.59375 -14.234375 2.285156 -14.347656 2.046875 -14.578125 C 1.816406 -14.816406 1.703125 -15.117188 1.703125 -15.484375 C 1.703125 -15.835938 1.816406 -16.128906 2.046875 -16.359375 C 2.285156 -16.597656 2.59375 -16.71875 2.96875 -16.71875 C 3.34375 -16.71875 3.644531 -16.597656 3.875 -16.359375 C 4.113281 -16.128906 4.234375 -15.835938 4.234375 -15.484375 C 4.234375 -15.117188 4.113281 -14.816406 3.875 -14.578125 C 3.644531 -14.347656 3.34375 -14.234375 2.96875 -14.234375 Z M 2.078125 0 L 2.078125 -11.9375 L 3.84375 -11.9375 L 3.84375 0 Z M 2.078125 0 "/></g></g></g><g fill="#ffffff" fill-opacity="1"><g transform="translate(398.379436, 348.694842)"><g><path d="M 4.921875 0.234375 C 3.742188 0.234375 2.820312 -0.0703125 2.15625 -0.6875 C 1.5 -1.300781 1.171875 -2.179688 1.171875 -3.328125 C 1.171875 -4.023438 1.316406 -4.617188 1.609375 -5.109375 C 1.910156 -5.597656 2.363281 -5.992188 2.96875 -6.296875 C 3.582031 -6.609375 4.382812 -6.847656 5.375 -7.015625 C 6.238281 -7.160156 6.894531 -7.320312 7.34375 -7.5 C 7.800781 -7.675781 8.109375 -7.875 8.265625 -8.09375 C 8.421875 -8.320312 8.5 -8.609375 8.5 -8.953125 C 8.5 -9.492188 8.3125 -9.90625 7.9375 -10.1875 C 7.5625 -10.476562 6.960938 -10.625 6.140625 -10.625 C 5.367188 -10.625 4.707031 -10.472656 4.15625 -10.171875 C 3.601562 -9.867188 3.097656 -9.425781 2.640625 -8.84375 L 2.421875 -8.84375 L 1.5625 -10.0625 C 2.0625 -10.707031 2.703125 -11.21875 3.484375 -11.59375 C 4.265625 -11.96875 5.148438 -12.15625 6.140625 -12.15625 C 7.546875 -12.15625 8.582031 -11.847656 9.25 -11.234375 C 9.914062 -10.617188 10.25 -9.765625 10.25 -8.671875 L 10.25 -2.34375 C 10.25 -1.6875 10.53125 -1.359375 11.09375 -1.359375 C 11.28125 -1.359375 11.460938 -1.390625 11.640625 -1.453125 L 11.796875 -1.40625 L 12 -0.1875 C 11.863281 -0.09375 11.691406 -0.0234375 11.484375 0.015625 C 11.273438 0.0664062 11.054688 0.09375 10.828125 0.09375 C 10.171875 0.09375 9.675781 -0.0507812 9.34375 -0.34375 C 9.007812 -0.632812 8.796875 -1.0625 8.703125 -1.625 L 8.46875 -1.640625 C 8.132812 -1.015625 7.675781 -0.546875 7.09375 -0.234375 C 6.519531 0.078125 5.796875 0.234375 4.921875 0.234375 Z M 5.3125 -1.171875 C 5.976562 -1.171875 6.550781 -1.320312 7.03125 -1.625 C 7.519531 -1.9375 7.894531 -2.367188 8.15625 -2.921875 C 8.414062 -3.484375 8.546875 -4.128906 8.546875 -4.859375 L 8.546875 -6.375 L 8.34375 -6.421875 C 8.070312 -6.234375 7.742188 -6.070312 7.359375 -5.9375 C 6.984375 -5.8125 6.453125 -5.703125 5.765625 -5.609375 C 5.078125 -5.515625 4.523438 -5.367188 4.109375 -5.171875 C 3.703125 -4.972656 3.410156 -4.722656 3.234375 -4.421875 C 3.066406 -4.128906 2.984375 -3.765625 2.984375 -3.328125 C 2.984375 -2.617188 3.1875 -2.082031 3.59375 -1.71875 C 4.007812 -1.351562 4.582031 -1.171875 5.3125 -1.171875 Z M 5.3125 -1.171875 "/></g></g></g><g fill="#ffffff" fill-opacity="1"><g transform="translate(410.71897, 348.694842)"><g/></g></g><g fill="#ffffff" fill-opacity="1"><g transform="translate(416.147932, 348.694842)"><g><path d="M 8.078125 -1.890625 L 8.640625 -0.625 C 8.359375 -0.34375 7.988281 -0.128906 7.53125 0.015625 C 7.070312 0.160156 6.570312 0.234375 6.03125 0.234375 C 3.757812 0.234375 2.625 -0.921875 2.625 -3.234375 L 2.625 -10.5 L 0.546875 -10.5 L 0.546875 -11.9375 L 2.625 -11.9375 L 2.625 -14.46875 L 4.375 -14.75 L 4.375 -11.9375 L 8.21875 -11.9375 L 8.21875 -10.5 L 4.375 -10.5 L 4.375 -3.40625 C 4.375 -2.039062 4.972656 -1.359375 6.171875 -1.359375 C 6.816406 -1.359375 7.375 -1.535156 7.84375 -1.890625 Z M 8.078125 -1.890625 "/></g></g></g><g fill="#ffffff" fill-opacity="1"><g transform="translate(425.232252, 348.694842)"><g><path d="M 2.078125 0 L 2.078125 -11.9375 L 3.75 -11.9375 L 3.75 -10.0625 L 3.984375 -10 C 4.535156 -11.363281 5.582031 -12.046875 7.125 -12.046875 C 7.9375 -12.046875 8.546875 -11.894531 8.953125 -11.59375 L 8.5 -10.109375 L 8.28125 -10.0625 C 7.832031 -10.28125 7.34375 -10.390625 6.8125 -10.390625 C 5.851562 -10.390625 5.117188 -10.03125 4.609375 -9.3125 C 4.097656 -8.601562 3.84375 -7.453125 3.84375 -5.859375 L 3.84375 0 Z M 2.078125 0 "/></g></g></g><g fill="#ffffff" fill-opacity="1"><g transform="translate(434.446347, 348.694842)"><g><path d="M 5.890625 0.234375 C 4.546875 0.234375 3.539062 -0.125 2.875 -0.84375 C 2.21875 -1.5625 1.890625 -2.609375 1.890625 -3.984375 L 1.890625 -11.9375 L 3.65625 -11.9375 L 3.65625 -4.03125 C 3.65625 -2.21875 4.503906 -1.3125 6.203125 -1.3125 C 7.285156 -1.3125 8.140625 -1.660156 8.765625 -2.359375 C 9.398438 -3.066406 9.71875 -4.21875 9.71875 -5.8125 L 9.71875 -11.9375 L 11.484375 -11.9375 L 11.484375 0 L 9.8125 0 L 9.8125 -1.875 L 9.578125 -1.921875 C 9.171875 -1.191406 8.679688 -0.648438 8.109375 -0.296875 C 7.535156 0.0546875 6.796875 0.234375 5.890625 0.234375 Z M 5.890625 0.234375 "/></g></g></g><g fill="#ffffff" fill-opacity="1"><g transform="translate(447.997123, 348.694842)"><g><path d="M 5.4375 0.234375 C 4.6875 0.234375 3.992188 0.132812 3.359375 -0.0625 C 2.722656 -0.269531 2.179688 -0.546875 1.734375 -0.890625 C 1.296875 -1.234375 0.988281 -1.625 0.8125 -2.0625 L 1.84375 -3.140625 L 2.078125 -3.140625 C 2.460938 -2.546875 2.929688 -2.097656 3.484375 -1.796875 C 4.035156 -1.503906 4.6875 -1.359375 5.4375 -1.359375 C 6.320312 -1.359375 6.992188 -1.523438 7.453125 -1.859375 C 7.910156 -2.203125 8.140625 -2.679688 8.140625 -3.296875 C 8.140625 -3.765625 8 -4.148438 7.71875 -4.453125 C 7.4375 -4.765625 6.988281 -5 6.375 -5.15625 L 4.359375 -5.640625 C 3.285156 -5.898438 2.5 -6.3125 2 -6.875 C 1.507812 -7.4375 1.265625 -8.132812 1.265625 -8.96875 C 1.265625 -9.613281 1.429688 -10.175781 1.765625 -10.65625 C 2.097656 -11.132812 2.570312 -11.503906 3.1875 -11.765625 C 3.8125 -12.023438 4.554688 -12.15625 5.421875 -12.15625 C 6.515625 -12.15625 7.375 -12 8 -11.6875 C 8.632812 -11.382812 9.128906 -10.960938 9.484375 -10.421875 L 8.5 -9.4375 L 8.28125 -9.4375 C 7.894531 -9.882812 7.472656 -10.203125 7.015625 -10.390625 C 6.566406 -10.585938 6.035156 -10.6875 5.421875 -10.6875 C 4.628906 -10.6875 4.023438 -10.546875 3.609375 -10.265625 C 3.191406 -9.984375 2.984375 -9.578125 2.984375 -9.046875 C 2.984375 -8.554688 3.128906 -8.164062 3.421875 -7.875 C 3.722656 -7.582031 4.238281 -7.34375 4.96875 -7.15625 L 6.953125 -6.6875 C 7.992188 -6.4375 8.742188 -6.023438 9.203125 -5.453125 C 9.671875 -4.890625 9.90625 -4.179688 9.90625 -3.328125 C 9.90625 -2.617188 9.738281 -2 9.40625 -1.46875 C 9.070312 -0.9375 8.566406 -0.519531 7.890625 -0.21875 C 7.222656 0.0820312 6.40625 0.234375 5.4375 0.234375 Z M 5.4375 0.234375 "/></g></g></g><g fill="#ffffff" fill-opacity="1"><g transform="translate(459.028082, 348.694842)"><g><path d="M 8.078125 -1.890625 L 8.640625 -0.625 C 8.359375 -0.34375 7.988281 -0.128906 7.53125 0.015625 C 7.070312 0.160156 6.570312 0.234375 6.03125 0.234375 C 3.757812 0.234375 2.625 -0.921875 2.625 -3.234375 L 2.625 -10.5 L 0.546875 -10.5 L 0.546875 -11.9375 L 2.625 -11.9375 L 2.625 -14.46875 L 4.375 -14.75 L 4.375 -11.9375 L 8.21875 -11.9375 L 8.21875 -10.5 L 4.375 -10.5 L 4.375 -3.40625 C 4.375 -2.039062 4.972656 -1.359375 6.171875 -1.359375 C 6.816406 -1.359375 7.375 -1.535156 7.84375 -1.890625 Z M 8.078125 -1.890625 "/></g></g></g><g fill="#ffffff" fill-opacity="1"><g transform="translate(467.971765, 348.694842)"><g><path d="M 11.375 -5.5625 L 3.171875 -5.5625 C 3.222656 -4.113281 3.570312 -3.050781 4.21875 -2.375 C 4.863281 -1.695312 5.75 -1.359375 6.875 -1.359375 C 7.71875 -1.359375 8.398438 -1.507812 8.921875 -1.8125 C 9.441406 -2.113281 9.847656 -2.585938 10.140625 -3.234375 L 10.375 -3.234375 L 11.515625 -2.546875 C 11.171875 -1.679688 10.617188 -1 9.859375 -0.5 C 9.097656 -0.0078125 8.101562 0.234375 6.875 0.234375 C 5.71875 0.234375 4.722656 0.00390625 3.890625 -0.453125 C 3.066406 -0.910156 2.429688 -1.597656 1.984375 -2.515625 C 1.535156 -3.441406 1.3125 -4.59375 1.3125 -5.96875 C 1.3125 -7.320312 1.546875 -8.460938 2.015625 -9.390625 C 2.484375 -10.316406 3.128906 -11.007812 3.953125 -11.46875 C 4.773438 -11.925781 5.710938 -12.15625 6.765625 -12.15625 C 8.296875 -12.15625 9.488281 -11.722656 10.34375 -10.859375 C 11.195312 -10.003906 11.628906 -8.726562 11.640625 -7.03125 C 11.640625 -6.363281 11.625 -5.914062 11.59375 -5.6875 Z M 9.90625 -7.03125 C 9.875 -8.300781 9.585938 -9.222656 9.046875 -9.796875 C 8.515625 -10.378906 7.753906 -10.671875 6.765625 -10.671875 C 5.710938 -10.671875 4.890625 -10.378906 4.296875 -9.796875 C 3.703125 -9.210938 3.34375 -8.289062 3.21875 -7.03125 Z M 9.90625 -7.03125 "/></g></g></g><g fill="#ffffff" fill-opacity="1"><g transform="translate(480.689811, 348.694842)"><g><path d="M 6.1875 0.234375 C 5.226562 0.234375 4.378906 0.00390625 3.640625 -0.453125 C 2.910156 -0.910156 2.335938 -1.601562 1.921875 -2.53125 C 1.515625 -3.457031 1.3125 -4.601562 1.3125 -5.96875 C 1.3125 -7.320312 1.523438 -8.460938 1.953125 -9.390625 C 2.390625 -10.316406 2.988281 -11.007812 3.75 -11.46875 C 4.507812 -11.925781 5.390625 -12.15625 6.390625 -12.15625 C 7.179688 -12.15625 7.894531 -12.003906 8.53125 -11.703125 C 9.164062 -11.410156 9.710938 -10.921875 10.171875 -10.234375 L 10.390625 -10.28125 L 10.390625 -16.71875 L 12.15625 -16.71875 L 12.15625 0 L 10.390625 0 L 10.390625 -1.734375 L 10.171875 -1.78125 C 9.773438 -1.1875 9.242188 -0.703125 8.578125 -0.328125 C 7.910156 0.046875 7.113281 0.234375 6.1875 0.234375 Z M 6.734375 -1.359375 C 7.847656 -1.359375 8.734375 -1.738281 9.390625 -2.5 C 10.054688 -3.257812 10.390625 -4.414062 10.390625 -5.96875 C 10.390625 -7.519531 10.054688 -8.675781 9.390625 -9.4375 C 8.734375 -10.195312 7.847656 -10.578125 6.734375 -10.578125 C 5.585938 -10.578125 4.703125 -10.207031 4.078125 -9.46875 C 3.460938 -8.726562 3.15625 -7.5625 3.15625 -5.96875 C 3.15625 -2.894531 4.347656 -1.359375 6.734375 -1.359375 Z M 6.734375 -1.359375 "/></g></g></g><g fill="#ffffff" fill-opacity="1"><g transform="translate(494.932726, 348.694842)"><g/></g></g><g fill="#ffffff" fill-opacity="1"><g transform="translate(500.361688, 348.694842)"><g><path d="M 6.1875 0.234375 C 5.226562 0.234375 4.378906 0.00390625 3.640625 -0.453125 C 2.910156 -0.910156 2.335938 -1.601562 1.921875 -2.53125 C 1.515625 -3.457031 1.3125 -4.601562 1.3125 -5.96875 C 1.3125 -7.320312 1.523438 -8.460938 1.953125 -9.390625 C 2.390625 -10.316406 2.988281 -11.007812 3.75 -11.46875 C 4.507812 -11.925781 5.390625 -12.15625 6.390625 -12.15625 C 7.179688 -12.15625 7.894531 -12.003906 8.53125 -11.703125 C 9.164062 -11.410156 9.710938 -10.921875 10.171875 -10.234375 L 10.390625 -10.28125 L 10.390625 -16.71875 L 12.15625 -16.71875 L 12.15625 0 L 10.390625 0 L 10.390625 -1.734375 L 10.171875 -1.78125 C 9.773438 -1.1875 9.242188 -0.703125 8.578125 -0.328125 C 7.910156 0.046875 7.113281 0.234375 6.1875 0.234375 Z M 6.734375 -1.359375 C 7.847656 -1.359375 8.734375 -1.738281 9.390625 -2.5 C 10.054688 -3.257812 10.390625 -4.414062 10.390625 -5.96875 C 10.390625 -7.519531 10.054688 -8.675781 9.390625 -9.4375 C 8.734375 -10.195312 7.847656 -10.578125 6.734375 -10.578125 C 5.585938 -10.578125 4.703125 -10.207031 4.078125 -9.46875 C 3.460938 -8.726562 3.15625 -7.5625 3.15625 -5.96875 C 3.15625 -2.894531 4.347656 -1.359375 6.734375 -1.359375 Z M 6.734375 -1.359375 "/></g></g></g><g fill="#ffffff" fill-opacity="1"><g transform="translate(514.604592, 348.694842)"><g><path d="M 6.84375 0.234375 C 5.71875 0.234375 4.738281 -0.00390625 3.90625 -0.484375 C 3.070312 -0.960938 2.429688 -1.664062 1.984375 -2.59375 C 1.535156 -3.519531 1.3125 -4.644531 1.3125 -5.96875 C 1.3125 -7.28125 1.535156 -8.398438 1.984375 -9.328125 C 2.429688 -10.265625 3.070312 -10.96875 3.90625 -11.4375 C 4.738281 -11.914062 5.71875 -12.15625 6.84375 -12.15625 C 7.96875 -12.15625 8.945312 -11.914062 9.78125 -11.4375 C 10.613281 -10.96875 11.253906 -10.265625 11.703125 -9.328125 C 12.160156 -8.398438 12.390625 -7.28125 12.390625 -5.96875 C 12.390625 -4.644531 12.160156 -3.519531 11.703125 -2.59375 C 11.253906 -1.664062 10.613281 -0.960938 9.78125 -0.484375 C 8.945312 -0.00390625 7.96875 0.234375 6.84375 0.234375 Z M 6.84375 -1.359375 C 8.039062 -1.359375 8.953125 -1.734375 9.578125 -2.484375 C 10.210938 -3.234375 10.53125 -4.394531 10.53125 -5.96875 C 10.53125 -7.539062 10.210938 -8.703125 9.578125 -9.453125 C 8.953125 -10.203125 8.039062 -10.578125 6.84375 -10.578125 C 5.65625 -10.578125 4.742188 -10.195312 4.109375 -9.4375 C 3.472656 -8.6875 3.15625 -7.53125 3.15625 -5.96875 C 3.15625 -4.394531 3.472656 -3.234375 4.109375 -2.484375 C 4.742188 -1.734375 5.65625 -1.359375 6.84375 -1.359375 Z M 6.84375 -1.359375 "/></g></g></g><g fill="#ffffff" fill-opacity="1"><g transform="translate(528.295982, 348.694842)"><g><path d="M 2.078125 0 L 2.078125 -11.9375 L 3.75 -11.9375 L 3.75 -10.171875 L 3.984375 -10.125 C 4.390625 -10.789062 4.878906 -11.296875 5.453125 -11.640625 C 6.023438 -11.984375 6.710938 -12.15625 7.515625 -12.15625 C 8.429688 -12.15625 9.140625 -11.976562 9.640625 -11.625 C 10.148438 -11.28125 10.546875 -10.71875 10.828125 -9.9375 L 11.0625 -9.9375 C 11.46875 -10.664062 11.972656 -11.21875 12.578125 -11.59375 C 13.179688 -11.96875 13.921875 -12.15625 14.796875 -12.15625 C 16.023438 -12.15625 16.941406 -11.820312 17.546875 -11.15625 C 18.148438 -10.5 18.453125 -9.492188 18.453125 -8.140625 L 18.453125 0 L 16.6875 0 L 16.6875 -8.09375 C 16.6875 -8.957031 16.503906 -9.59375 16.140625 -10 C 15.773438 -10.414062 15.1875 -10.625 14.375 -10.625 C 13.425781 -10.625 12.648438 -10.273438 12.046875 -9.578125 C 11.441406 -8.890625 11.140625 -7.753906 11.140625 -6.171875 L 11.140625 0 L 9.375 0 L 9.375 -8.09375 C 9.375 -8.957031 9.191406 -9.59375 8.828125 -10 C 8.460938 -10.414062 7.878906 -10.625 7.078125 -10.625 C 6.117188 -10.625 5.335938 -10.285156 4.734375 -9.609375 C 4.140625 -8.941406 3.84375 -7.851562 3.84375 -6.34375 L 3.84375 0 Z M 2.078125 0 "/></g></g></g><g fill="#ffffff" fill-opacity="1"><g transform="translate(548.627554, 348.694842)"><g><path d="M 4.921875 0.234375 C 3.742188 0.234375 2.820312 -0.0703125 2.15625 -0.6875 C 1.5 -1.300781 1.171875 -2.179688 1.171875 -3.328125 C 1.171875 -4.023438 1.316406 -4.617188 1.609375 -5.109375 C 1.910156 -5.597656 2.363281 -5.992188 2.96875 -6.296875 C 3.582031 -6.609375 4.382812 -6.847656 5.375 -7.015625 C 6.238281 -7.160156 6.894531 -7.320312 7.34375 -7.5 C 7.800781 -7.675781 8.109375 -7.875 8.265625 -8.09375 C 8.421875 -8.320312 8.5 -8.609375 8.5 -8.953125 C 8.5 -9.492188 8.3125 -9.90625 7.9375 -10.1875 C 7.5625 -10.476562 6.960938 -10.625 6.140625 -10.625 C 5.367188 -10.625 4.707031 -10.472656 4.15625 -10.171875 C 3.601562 -9.867188 3.097656 -9.425781 2.640625 -8.84375 L 2.421875 -8.84375 L 1.5625 -10.0625 C 2.0625 -10.707031 2.703125 -11.21875 3.484375 -11.59375 C 4.265625 -11.96875 5.148438 -12.15625 6.140625 -12.15625 C 7.546875 -12.15625 8.582031 -11.847656 9.25 -11.234375 C 9.914062 -10.617188 10.25 -9.765625 10.25 -8.671875 L 10.25 -2.34375 C 10.25 -1.6875 10.53125 -1.359375 11.09375 -1.359375 C 11.28125 -1.359375 11.460938 -1.390625 11.640625 -1.453125 L 11.796875 -1.40625 L 12 -0.1875 C 11.863281 -0.09375 11.691406 -0.0234375 11.484375 0.015625 C 11.273438 0.0664062 11.054688 0.09375 10.828125 0.09375 C 10.171875 0.09375 9.675781 -0.0507812 9.34375 -0.34375 C 9.007812 -0.632812 8.796875 -1.0625 8.703125 -1.625 L 8.46875 -1.640625 C 8.132812 -1.015625 7.675781 -0.546875 7.09375 -0.234375 C 6.519531 0.078125 5.796875 0.234375 4.921875 0.234375 Z M 5.3125 -1.171875 C 5.976562 -1.171875 6.550781 -1.320312 7.03125 -1.625 C 7.519531 -1.9375 7.894531 -2.367188 8.15625 -2.921875 C 8.414062 -3.484375 8.546875 -4.128906 8.546875 -4.859375 L 8.546875 -6.375 L 8.34375 -6.421875 C 8.070312 -6.234375 7.742188 -6.070312 7.359375 -5.9375 C 6.984375 -5.8125 6.453125 -5.703125 5.765625 -5.609375 C 5.078125 -5.515625 4.523438 -5.367188 4.109375 -5.171875 C 3.703125 -4.972656 3.410156 -4.722656 3.234375 -4.421875 C 3.066406 -4.128906 2.984375 -3.765625 2.984375 -3.328125 C 2.984375 -2.617188 3.1875 -2.082031 3.59375 -1.71875 C 4.007812 -1.351562 4.582031 -1.171875 5.3125 -1.171875 Z M 5.3125 -1.171875 "/></g></g></g><g fill="#ffffff" fill-opacity="1"><g transform="translate(560.967076, 348.694842)"><g><path d="M 2.96875 -14.234375 C 2.59375 -14.234375 2.285156 -14.347656 2.046875 -14.578125 C 1.816406 -14.816406 1.703125 -15.117188 1.703125 -15.484375 C 1.703125 -15.835938 1.816406 -16.128906 2.046875 -16.359375 C 2.285156 -16.597656 2.59375 -16.71875 2.96875 -16.71875 C 3.34375 -16.71875 3.644531 -16.597656 3.875 -16.359375 C 4.113281 -16.128906 4.234375 -15.835938 4.234375 -15.484375 C 4.234375 -15.117188 4.113281 -14.816406 3.875 -14.578125 C 3.644531 -14.347656 3.34375 -14.234375 2.96875 -14.234375 Z M 2.078125 0 L 2.078125 -11.9375 L 3.84375 -11.9375 L 3.84375 0 Z M 2.078125 0 "/></g></g></g><g fill="#ffffff" fill-opacity="1"><g transform="translate(566.88271, 348.694842)"><g><path d="M 2.078125 0 L 2.078125 -11.9375 L 3.75 -11.9375 L 3.75 -10.0625 L 3.984375 -10 C 4.378906 -10.707031 4.882812 -11.242188 5.5 -11.609375 C 6.113281 -11.972656 6.863281 -12.15625 7.75 -12.15625 C 9.1875 -12.15625 10.226562 -11.789062 10.875 -11.0625 C 11.519531 -10.332031 11.84375 -9.207031 11.84375 -7.6875 L 11.84375 0 L 10.078125 0 L 10.078125 -7.640625 C 10.078125 -8.359375 9.984375 -8.9375 9.796875 -9.375 C 9.617188 -9.8125 9.335938 -10.128906 8.953125 -10.328125 C 8.566406 -10.523438 8.0625 -10.625 7.4375 -10.625 C 6.363281 -10.625 5.492188 -10.269531 4.828125 -9.5625 C 4.171875 -8.851562 3.84375 -7.707031 3.84375 -6.125 L 3.84375 0 Z M 2.078125 0 "/></g></g></g><g fill="#ffffff" fill-opacity="1"><g transform="translate(580.617312, 348.694842)"><g><path d="M 2.90625 0.109375 C 2.5 0.109375 2.175781 -0.00390625 1.9375 -0.234375 C 1.695312 -0.460938 1.578125 -0.769531 1.578125 -1.15625 C 1.578125 -1.53125 1.695312 -1.835938 1.9375 -2.078125 C 2.175781 -2.316406 2.5 -2.4375 2.90625 -2.4375 C 3.320312 -2.4375 3.648438 -2.320312 3.890625 -2.09375 C 4.128906 -1.863281 4.25 -1.554688 4.25 -1.171875 C 4.25 -0.796875 4.128906 -0.488281 3.890625 -0.25 C 3.648438 -0.0078125 3.320312 0.109375 2.90625 0.109375 Z M 2.90625 0.109375 "/></g></g></g></svg>